<?xml version="1.0" encoding="UTF-8"?>
<!DOCTYPE svg PUBLIC "-//W3C//DTD SVG 1.1//EN" "http://www.w3.org/Graphics/SVG/1.1/DTD/svg11.dtd">
<svg xmlns="http://www.w3.org/2000/svg" version="1.1" width="1654px" height="2339px" style="shape-rendering:geometricPrecision; text-rendering:geometricPrecision; image-rendering:optimizeQuality; fill-rule:evenodd; clip-rule:evenodd" xmlns:xlink="http://www.w3.org/1999/xlink">
<g><path style="opacity:1" fill="#fefefe" d="M -0.5,-0.5 C 92.8333,-0.5 186.167,-0.5 279.5,-0.5C 186.744,176.314 93.4106,352.981 -0.5,529.5C -0.5,352.833 -0.5,176.167 -0.5,-0.5 Z"/></g>
<g><path style="opacity:1" fill="#f0eff7" d="M 279.5,-0.5 C 290.833,-0.5 302.167,-0.5 313.5,-0.5C 314.37,1.27368 315.703,2.60701 317.5,3.5C 326.47,21.8564 335.47,39.6898 344.5,57C 350.58,66.9938 355.747,77.4938 360,88.5C 363.336,91.0737 364.503,94.2404 363.5,98C 364.931,98.4652 366.097,99.2986 367,100.5C 370.177,106.056 373.01,111.89 375.5,118C 379.503,123.513 382.336,129.68 384,136.5C 384.414,136.043 384.914,135.709 385.5,135.5C 387.437,140.243 389.937,144.577 393,148.5C 393.333,150.167 393.667,151.833 394,153.5C 399.933,165.038 406.1,176.371 412.5,187.5C 411.449,188.222 410.782,189.222 410.5,190.5C 408.863,194.118 406.863,197.451 404.5,200.5C 396.963,213.021 389.963,226.021 383.5,239.5C 382.095,244.977 379.595,249.977 376,254.5C 314.013,373.975 251.179,492.975 187.5,611.5C 186.542,611.953 185.708,612.619 185,613.5C 177.822,627.855 170.656,642.189 163.5,656.5C 161.6,661.582 159.433,666.582 157,671.5C 151.015,682.497 144.848,693.164 138.5,703.5C 136.657,705.853 135.323,708.52 134.5,711.5C 116.111,711.185 97.7775,712.018 79.5,714C 90.1358,714.828 90.1358,715.328 79.5,715.5C 70.1467,714.641 60.8134,714.307 51.5,714.5C 48.0803,714.784 44.747,715.451 41.5,716.5C 27.5276,717.231 13.5276,717.231 -0.5,716.5C -0.5,654.167 -0.5,591.833 -0.5,529.5C 93.4106,352.981 186.744,176.314 279.5,-0.5 Z"/></g>
<g><path style="opacity:1" fill="#f5f5f5" d="M 313.5,-0.5 C 404.833,-0.5 496.167,-0.5 587.5,-0.5C 713.476,243.08 839.143,486.413 964.5,729.5C 968.019,730.932 971.686,731.766 975.5,732C 1173.54,749.223 1370.2,775.39 1565.5,810.5C 1564.91,811.799 1563.91,812.632 1562.5,813C 1380.32,816.135 1198.32,821.302 1016.5,828.5C 1025.12,845.408 1033.45,862.408 1041.5,879.5C 1040.52,878.859 1039.52,878.193 1038.5,877.5C 1036.48,872.393 1034.31,867.393 1032,862.5C 1026.23,853.13 1020.89,843.463 1016,833.5C 1015.33,831.167 1015.33,828.833 1016,826.5C 1016.33,826.833 1016.67,827.167 1017,827.5C 1021.83,826.846 1026.66,826.013 1031.5,825C 1053.69,824.009 1076.02,823.676 1098.5,824C 1104.06,822.761 1109.72,822.094 1115.5,822C 1137.17,821.667 1158.83,821.333 1180.5,821C 1191,819.505 1201.67,818.672 1212.5,818.5C 1216.55,818.532 1220.55,818.865 1224.5,819.5C 1241.12,818.681 1257.79,818.181 1274.5,818C 1286.84,816.475 1299.34,815.642 1312,815.5C 1317.04,815.538 1322.04,815.871 1327,816.5C 1345.95,816.007 1364.79,815.173 1383.5,814C 1441.62,813.863 1499.62,812.696 1557.5,810.5C 1527.42,805.868 1497.75,800.868 1468.5,795.5C 1467.45,795.68 1466.45,796.013 1465.5,796.5C 1464.09,795.194 1462.42,794.36 1460.5,794C 1449.45,792.815 1438.45,791.482 1427.5,790C 1415.58,787.585 1403.58,785.585 1391.5,784C 1386.42,781.694 1381.09,781.027 1375.5,782C 1342.41,775.71 1309.07,771.043 1275.5,768C 1273.62,767.784 1271.95,767.117 1270.5,766C 1249.89,763.628 1229.22,761.295 1208.5,759C 1204.23,756.682 1199.73,756.182 1195,757.5C 1177.6,755.387 1160.26,753.054 1143,750.5C 1142.44,751.022 1141.77,751.355 1141,751.5C 1132.44,748.989 1123.61,747.823 1114.5,748C 1111.77,747.587 1109.1,746.92 1106.5,746C 1084.25,744.613 1062.09,742.446 1040,739.5C 1039.28,740.059 1038.44,740.392 1037.5,740.5C 1023.86,738.462 1010.19,736.628 996.5,735C 984.974,735.131 973.641,733.964 962.5,731.5C 962.66,729.801 962.494,728.134 962,726.5C 959.28,723.169 957.113,719.502 955.5,715.5C 954.914,715.709 954.414,716.043 954,716.5C 954.195,714.874 954.195,713.207 954,711.5C 935.328,678.048 918.328,645.048 903,612.5C 902.667,612.833 902.333,613.167 902,613.5C 899.521,608.202 897.354,602.869 895.5,597.5C 894.5,597.5 893.5,597.5 892.5,597.5C 892.441,593.954 891.608,590.621 890,587.5C 886.51,581.321 882.844,575.321 879,569.5C 866.248,541.658 852.248,514.658 837,488.5C 835.791,482.313 833.125,476.98 829,472.5C 819.796,452.302 809.963,432.635 799.5,413.5C 798.808,414.025 798.308,414.692 798,415.5C 797.257,413.559 797.424,411.726 798.5,410C 797.874,409.25 797.374,408.416 797,407.5C 796.667,407.833 796.333,408.167 796,408.5C 794.402,405.329 793.068,401.996 792,398.5C 791.667,398.833 791.333,399.167 791,399.5C 785.679,388.224 780.345,376.89 775,365.5C 767.004,351.495 759.671,337.495 753,323.5C 752.333,322.167 751.667,322.167 751,323.5C 750.503,321.19 750.337,318.857 750.5,316.5C 749.5,316.5 748.5,316.5 747.5,316.5C 747.66,314.801 747.494,313.134 747,311.5C 736.462,292.259 726.295,272.759 716.5,253C 715.616,251.902 714.616,251.402 713.5,251.5C 713.931,250.707 714.265,249.873 714.5,249C 711.801,244.773 709.801,240.273 708.5,235.5C 707.5,235.5 706.5,235.5 705.5,235.5C 705.799,233.396 705.466,231.396 704.5,229.5C 694.666,212.25 685.666,194.584 677.5,176.5C 676.448,176.649 675.448,176.483 674.5,176C 675.517,174.951 675.684,173.784 675,172.5C 673.696,169.511 671.863,167.011 669.5,165C 669.833,164.667 670.167,164.333 670.5,164C 643.551,113.05 615.884,59.7164 587.5,4C 497.501,3.5 407.501,3.33334 317.5,3.5C 315.703,2.60701 314.37,1.27368 313.5,-0.5 Z"/></g>
<g><path style="opacity:1" fill="#fefefe" d="M 587.5,-0.5 C 942.833,-0.5 1298.17,-0.5 1653.5,-0.5C 1653.5,686.5 1653.5,1373.5 1653.5,2060.5C 1633.84,2023.84 1614.67,1986.84 1596,1949.5C 1594.39,1946.59 1592.56,1943.93 1590.5,1941.5C 1569.29,1899.72 1548.13,1857.72 1527,1815.5C 1504.35,1772.53 1482.02,1729.53 1460,1686.5C 1458.72,1684.25 1457.22,1682.25 1455.5,1680.5C 1451.62,1671.37 1447.46,1662.37 1443,1653.5C 1311.5,1400.51 1180.5,1147.18 1050,893.5C 1047.39,888.603 1044.56,883.937 1041.5,879.5C 1033.45,862.408 1025.12,845.408 1016.5,828.5C 1198.32,821.302 1380.32,816.135 1562.5,813C 1563.91,812.632 1564.91,811.799 1565.5,810.5C 1370.2,775.39 1173.54,749.223 975.5,732C 971.686,731.766 968.019,730.932 964.5,729.5C 839.143,486.413 713.476,243.08 587.5,-0.5 Z"/></g>
<g><path style="opacity:1" fill="#f2f2f2" d="M 317.5,3.5 C 407.501,3.33334 497.501,3.5 587.5,4C 615.884,59.7164 643.551,113.05 670.5,164C 670.167,164.333 669.833,164.667 669.5,165C 671.863,167.011 673.696,169.511 675,172.5C 675.684,173.784 675.517,174.951 674.5,176C 675.448,176.483 676.448,176.649 677.5,176.5C 685.666,194.584 694.666,212.25 704.5,229.5C 705.466,231.396 705.799,233.396 705.5,235.5C 706.5,235.5 707.5,235.5 708.5,235.5C 709.801,240.273 711.801,244.773 714.5,249C 714.265,249.873 713.931,250.707 713.5,251.5C 714.616,251.402 715.616,251.902 716.5,253C 726.295,272.759 736.462,292.259 747,311.5C 747.494,313.134 747.66,314.801 747.5,316.5C 748.5,316.5 749.5,316.5 750.5,316.5C 750.337,318.857 750.503,321.19 751,323.5C 751.667,322.167 752.333,322.167 753,323.5C 759.671,337.495 767.004,351.495 775,365.5C 780.345,376.89 785.679,388.224 791,399.5C 791.333,399.167 791.667,398.833 792,398.5C 793.068,401.996 794.402,405.329 796,408.5C 796.333,408.167 796.667,407.833 797,407.5C 797.374,408.416 797.874,409.25 798.5,410C 797.424,411.726 797.257,413.559 798,415.5C 798.308,414.692 798.808,414.025 799.5,413.5C 809.963,432.635 819.796,452.302 829,472.5C 833.125,476.98 835.791,482.313 837,488.5C 852.248,514.658 866.248,541.658 879,569.5C 882.844,575.321 886.51,581.321 890,587.5C 891.608,590.621 892.441,593.954 892.5,597.5C 893.5,597.5 894.5,597.5 895.5,597.5C 897.354,602.869 899.521,608.202 902,613.5C 902.333,613.167 902.667,612.833 903,612.5C 918.328,645.048 935.328,678.048 954,711.5C 954.195,713.207 954.195,714.874 954,716.5C 954.414,716.043 954.914,715.709 955.5,715.5C 957.113,719.502 959.28,723.169 962,726.5C 962.494,728.134 962.66,729.801 962.5,731.5C 973.641,733.964 984.974,735.131 996.5,735C 1010.19,736.628 1023.86,738.462 1037.5,740.5C 1038.44,740.392 1039.28,740.059 1040,739.5C 1062.09,742.446 1084.25,744.613 1106.5,746C 1109.1,746.92 1111.77,747.587 1114.5,748C 1123.61,747.823 1132.44,748.989 1141,751.5C 1141.77,751.355 1142.44,751.022 1143,750.5C 1160.26,753.054 1177.6,755.387 1195,757.5C 1199.73,756.182 1204.23,756.682 1208.5,759C 1229.22,761.295 1249.89,763.628 1270.5,766C 1271.95,767.117 1273.62,767.784 1275.5,768C 1309.07,771.043 1342.41,775.71 1375.5,782C 1381.09,781.027 1386.42,781.694 1391.5,784C 1403.58,785.585 1415.58,787.585 1427.5,790C 1438.45,791.482 1449.45,792.815 1460.5,794C 1462.42,794.36 1464.09,795.194 1465.5,796.5C 1466.45,796.013 1467.45,795.68 1468.5,795.5C 1497.75,800.868 1527.42,805.868 1557.5,810.5C 1499.62,812.696 1441.62,813.863 1383.5,814C 1364.79,815.173 1345.95,816.007 1327,816.5C 1322.04,815.871 1317.04,815.538 1312,815.5C 1299.34,815.642 1286.84,816.475 1274.5,818C 1257.79,818.181 1241.12,818.681 1224.5,819.5C 1220.55,818.865 1216.55,818.532 1212.5,818.5C 1201.67,818.672 1191,819.505 1180.5,821C 1158.83,821.333 1137.17,821.667 1115.5,822C 1109.72,822.094 1104.06,822.761 1098.5,824C 1076.02,823.676 1053.69,824.009 1031.5,825C 1026.66,826.013 1021.83,826.846 1017,827.5C 1016.67,827.167 1016.33,826.833 1016,826.5C 1015.33,828.833 1015.33,831.167 1016,833.5C 1020.89,843.463 1026.23,853.13 1032,862.5C 1034.31,867.393 1036.48,872.393 1038.5,877.5C 1039.52,878.193 1040.52,878.859 1041.5,879.5C 1047.74,893.784 1054.58,907.784 1062,921.5C 1062.49,923.134 1062.66,924.801 1062.5,926.5C 1063.5,926.5 1064.5,926.5 1065.5,926.5C 1065.15,929.421 1066.15,931.754 1068.5,933.5C 1068.29,934.086 1067.96,934.586 1067.5,935C 1069,935.833 1070.17,937 1071,938.5C 1072.84,943.885 1075.34,948.885 1078.5,953.5C 1079.45,955.045 1079.79,956.712 1079.5,958.5C 1080.5,958.5 1081.5,958.5 1082.5,958.5C 1082.59,962.61 1083.76,966.276 1086,969.5C 1089.72,974.644 1092.39,979.644 1094,984.5C 1099.14,994.462 1104.47,1004.13 1110,1013.5C 1110.33,1015.17 1110.67,1016.83 1111,1018.5C 1112.13,1017.4 1112.96,1017.73 1113.5,1019.5C 1113.31,1021.07 1113.31,1022.57 1113.5,1024C 1114.42,1024.37 1115.25,1024.87 1116,1025.5C 1122.04,1036.93 1127.71,1048.6 1133,1060.5C 1137.14,1065.11 1139.97,1070.45 1141.5,1076.5C 1144.91,1082.57 1148.41,1088.57 1152,1094.5C 1152.68,1095.78 1152.52,1096.95 1151.5,1098C 1152.45,1098.48 1153.45,1098.65 1154.5,1098.5C 1154.34,1099.87 1154.51,1101.21 1155,1102.5C 1160.48,1112.19 1165.81,1121.86 1171,1131.5C 1171.49,1133.13 1171.66,1134.8 1171.5,1136.5C 1172.5,1136.5 1173.5,1136.5 1174.5,1136.5C 1174.21,1138.29 1174.55,1139.95 1175.5,1141.5C 1179.17,1148.83 1182.83,1156.17 1186.5,1163.5C 1192.22,1172.1 1196.72,1181.43 1200,1191.5C 1200.33,1191.17 1200.67,1190.83 1201,1190.5C 1204.61,1197.38 1207.94,1204.38 1211,1211.5C 1214.67,1217.83 1218.33,1224.16 1222,1230.5C 1223.38,1233.37 1224.22,1236.37 1224.5,1239.5C 1225.5,1239.5 1226.5,1239.5 1227.5,1239.5C 1227.21,1241.29 1227.55,1242.95 1228.5,1244.5C 1232.5,1249.48 1234.83,1255.15 1235.5,1261.5C 1236.5,1261.5 1237.5,1261.5 1238.5,1261.5C 1238.34,1262.87 1238.51,1264.21 1239,1265.5C 1244.95,1274.2 1249.45,1283.54 1252.5,1293.5C 1253.5,1293.5 1254.5,1293.5 1255.5,1293.5C 1258.18,1300.51 1260.85,1307.51 1263.5,1314.5C 1264.5,1314.5 1265.5,1314.5 1266.5,1314.5C 1266.71,1316.14 1266.38,1317.64 1265.5,1319C 1266.77,1319.31 1267.93,1319.81 1269,1320.5C 1284.14,1351.86 1299.97,1382.86 1316.5,1413.5C 1316.39,1414.44 1316.06,1415.28 1315.5,1416C 1316.55,1417.12 1317.72,1417.62 1319,1417.5C 1330.67,1441.16 1342.67,1464.83 1355,1488.5C 1355.49,1490.13 1355.66,1491.8 1355.5,1493.5C 1356.68,1493.28 1357.68,1493.61 1358.5,1494.5C 1359.08,1496 1359.92,1497.33 1361,1498.5C 1368.59,1515.16 1376.93,1531.49 1386,1547.5C 1386.49,1549.13 1386.66,1550.8 1386.5,1552.5C 1387.5,1552.5 1388.5,1552.5 1389.5,1552.5C 1389.21,1554.29 1389.55,1555.95 1390.5,1557.5C 1391.74,1560.23 1393.4,1562.73 1395.5,1565C 1395.04,1565.41 1394.71,1565.91 1394.5,1566.5C 1396.58,1568.71 1397.91,1571.37 1398.5,1574.5C 1399.09,1574.29 1399.59,1573.96 1400,1573.5C 1400.33,1575.83 1400.67,1578.17 1401,1580.5C 1401.33,1580.17 1401.67,1579.83 1402,1579.5C 1402.84,1581.84 1404.17,1583.84 1406,1585.5C 1406.33,1587.17 1406.67,1588.83 1407,1590.5C 1407.33,1590.17 1407.67,1589.83 1408,1589.5C 1410.32,1593.16 1411.66,1597.16 1412,1601.5C 1412.67,1600.17 1413.33,1600.17 1414,1601.5C 1413.89,1604.56 1415.06,1606.89 1417.5,1608.5C 1429.65,1633.12 1442.32,1657.12 1455.5,1680.5C 1456.54,1682.39 1456.54,1684.22 1455.5,1686C 1456.62,1686.25 1457.62,1686.75 1458.5,1687.5C 1488,1746.42 1517.83,1804.08 1548,1860.5C 1560.38,1885.59 1573.04,1910.59 1586,1935.5C 1587.28,1937.75 1588.78,1939.75 1590.5,1941.5C 1592.56,1943.93 1594.39,1946.59 1596,1949.5C 1614.67,1986.84 1633.84,2023.84 1653.5,2060.5C 1653.5,2142.5 1653.5,2224.5 1653.5,2306.5C 1645.17,2306.5 1636.83,2306.5 1628.5,2306.5C 1628.67,2278.16 1628.5,2249.83 1628,2221.5C 1627.29,2220.03 1626.12,2219.36 1624.5,2219.5C 1624.5,2218.17 1624.5,2216.83 1624.5,2215.5C 1625.17,2215.83 1625.83,2216.17 1626.5,2216.5C 1631.32,2217.65 1636.32,2217.82 1641.5,2217C 1642.47,2212.6 1642.8,2208.1 1642.5,2203.5C 1642.7,2201.61 1642.04,2200.11 1640.5,2199C 1634.84,2198.5 1629.18,2198.33 1623.5,2198.5C 1622.51,2188.35 1622.17,2178.01 1622.5,2167.5C 1622.5,2165.83 1622.5,2164.17 1622.5,2162.5C 1607.32,2162.17 1592.32,2162.5 1577.5,2163.5C 1577.5,2178.17 1577.5,2192.83 1577.5,2207.5C 1579.5,2207.5 1581.5,2207.5 1583.5,2207.5C 1596.12,2209.48 1609.12,2210.15 1622.5,2209.5C 1622.63,2211.22 1622.96,2212.88 1623.5,2214.5C 1593,2214.17 1562.66,2214.5 1532.5,2215.5C 1531.83,2215.5 1531.5,2215.83 1531.5,2216.5C 1530.67,2232.33 1530.17,2248.33 1530,2264.5C 1519.53,2264.82 1509.36,2265.82 1499.5,2267.5C 1499.5,2271.83 1499.5,2276.17 1499.5,2280.5C 1498.52,2283.62 1498.19,2286.96 1498.5,2290.5C 1498.17,2290.5 1497.83,2290.5 1497.5,2290.5C 1496.37,2287.78 1495.03,2285.12 1493.5,2282.5C 1494.79,2282.74 1495.79,2282.4 1496.5,2281.5C 1497.83,2276.17 1497.83,2270.83 1496.5,2265.5C 1494.71,2264.69 1492.71,2264.19 1490.5,2264C 1490.83,2263.67 1491.17,2263.33 1491.5,2263C 1503.01,2262.83 1514.34,2262.33 1525.5,2261.5C 1526.12,2261.39 1526.62,2261.06 1527,2260.5C 1527.67,2241.83 1527.67,2223.17 1527,2204.5C 1525.39,2203.85 1523.89,2203.02 1522.5,2202C 1504.93,2202.07 1487.43,2201.24 1470,2199.5C 1467.99,2199.31 1466.49,2199.97 1465.5,2201.5C 1465.5,2211.17 1465.5,2220.83 1465.5,2230.5C 1465.5,2238.5 1465.5,2246.5 1465.5,2254.5C 1464.51,2244.35 1464.17,2234.01 1464.5,2223.5C 1464.67,2215.16 1464.5,2206.83 1464,2198.5C 1462.71,2204.66 1462.04,2211 1462,2217.5C 1461.51,2215.87 1461.34,2214.2 1461.5,2212.5C 1460.5,2212.5 1459.5,2212.5 1458.5,2212.5C 1458.79,2210.71 1458.45,2209.05 1457.5,2207.5C 1444.54,2184.54 1432.7,2161.54 1422,2138.5C 1420.33,2136.17 1418.67,2133.83 1417,2131.5C 1414.98,2127.15 1412.82,2122.81 1410.5,2118.5C 1411.33,2117.55 1411.49,2116.55 1411,2115.5C 1410.33,2116.83 1409.67,2116.83 1409,2115.5C 1402.87,2101.55 1396.2,2088.55 1389,2076.5C 1388.32,2075.22 1388.48,2074.05 1389.5,2073C 1388.55,2072.52 1387.55,2072.35 1386.5,2072.5C 1384.73,2066.37 1381.89,2060.7 1378,2055.5C 1358.15,2016.41 1337.82,1976.74 1317,1936.5C 1316.51,1934.87 1316.34,1933.2 1316.5,1931.5C 1315.5,1931.5 1314.5,1931.5 1313.5,1931.5C 1313.66,1930.13 1313.49,1928.79 1313,1927.5C 1312.62,1928.06 1312.12,1928.39 1311.5,1928.5C 1310.86,1926.54 1310.86,1924.71 1311.5,1923C 1310.38,1922.75 1309.38,1922.25 1308.5,1921.5C 1282.03,1868.66 1254.86,1815.99 1227,1763.5C 1214.13,1737.54 1200.63,1710.88 1186.5,1683.5C 1185.69,1681.23 1185.19,1678.9 1185,1676.5C 1184.67,1677.5 1184.33,1678.5 1184,1679.5C 1182.28,1677.8 1182.11,1675.96 1183.5,1674C 1182.23,1673.69 1181.07,1673.19 1180,1672.5C 1178.21,1669.37 1176.88,1666.04 1176,1662.5C 1174.59,1659.76 1172.76,1657.43 1170.5,1655.5C 1169.97,1652.77 1169.14,1650.1 1168,1647.5C 1160.04,1633.41 1152.54,1619.24 1145.5,1605C 1145.83,1604.67 1146.17,1604.33 1146.5,1604C 1145.58,1603.63 1144.75,1603.13 1144,1602.5C 1113.92,1543.85 1083.25,1484.52 1052,1424.5C 1051.51,1422.87 1051.34,1421.2 1051.5,1419.5C 1050.5,1419.5 1049.5,1419.5 1048.5,1419.5C 1047.29,1413.08 1044.46,1407.42 1040,1402.5C 1038.26,1399.09 1037.26,1395.42 1037,1391.5C 1036.59,1391.96 1036.09,1392.29 1035.5,1392.5C 1019.5,1360.31 1003.16,1329.15 986.5,1299C 987.451,1298.28 987.617,1297.45 987,1296.5C 984.631,1294.4 982.798,1291.9 981.5,1289C 978.022,1279.62 973.356,1271.12 967.5,1263.5C 967.799,1261.4 967.466,1259.4 966.5,1257.5C 933.061,1194.06 900.228,1130.72 868,1067.5C 867.51,1066.21 867.343,1064.87 867.5,1063.5C 866.5,1063.5 865.5,1063.5 864.5,1063.5C 864.628,1061.35 864.128,1059.35 863,1057.5C 862.667,1057.83 862.333,1058.17 862,1058.5C 861.884,1055.07 860.717,1052.07 858.5,1049.5C 860.252,1046.81 859.752,1046.14 857,1047.5C 856.051,1044.66 854.551,1042.16 852.5,1040C 853.517,1038.95 853.684,1037.78 853,1036.5C 852.333,1037.83 851.667,1037.83 851,1036.5C 850.727,1034.9 850.227,1033.4 849.5,1032C 849.833,1031.67 850.167,1031.33 850.5,1031C 848.114,1030.72 847.448,1029.72 848.5,1028C 846.294,1025.96 844.294,1023.8 842.5,1021.5C 842.313,1019.44 841.813,1017.44 841,1015.5C 832.777,1001.28 825.444,986.611 819,971.5C 818.667,971.833 818.333,972.167 818,972.5C 815.238,964.581 811.405,957.248 806.5,950.5C 791.248,919.429 775.415,888.763 759,858.5C 758.506,856.866 758.34,855.199 758.5,853.5C 757.5,853.5 756.5,853.5 755.5,853.5C 755.66,851.801 755.494,850.134 755,848.5C 753.076,846.178 751.743,843.511 751,840.5C 748.706,840.952 746.206,840.952 743.5,840.5C 738.295,840.606 733.295,841.439 728.5,843C 718.167,843.333 707.833,843.667 697.5,844C 694.768,844.413 692.101,845.08 689.5,846C 667.508,847.331 645.508,848.665 623.5,850C 618.996,850.998 614.496,851.831 610,852.5C 602.413,851.109 594.913,851.609 587.5,854C 579.5,854.333 571.5,854.667 563.5,855C 553.721,857.127 543.721,858.127 533.5,858C 505.95,861.223 478.283,863.89 450.5,866C 447.833,866.667 445.167,867.333 442.5,868C 435.5,868.333 428.5,868.667 421.5,869C 419.913,869.862 418.246,870.529 416.5,871C 410.167,871.333 403.833,871.667 397.5,872C 395.5,872.667 393.5,873.333 391.5,874C 361.281,876.211 331.281,879.211 301.5,883C 299.913,883.862 298.246,884.529 296.5,885C 288.646,884.91 280.979,885.91 273.5,888C 267.5,888.333 261.5,888.667 255.5,889C 248.193,890.115 240.859,891.449 233.5,893C 228.5,893.333 223.5,893.667 218.5,894C 216.754,894.471 215.087,895.138 213.5,896C 189.068,898.295 164.735,901.295 140.5,905C 133.073,907.091 125.406,908.091 117.5,908C 116.833,908.667 116.167,909.333 115.5,910C 108.574,909.899 101.907,910.899 95.5,913C 90.9132,913.799 86.4132,913.632 82,912.5C 81.6258,913.416 81.1258,914.25 80.5,915C 69.465,916.254 58.465,917.588 47.5,919C 41.4479,921.146 35.1146,922.146 28.5,922C 25.9751,923.719 23.3084,924.886 20.5,925.5C 19.8826,925.389 19.3826,925.056 19,924.5C 12.4878,926.207 5.98784,927.874 -0.5,929.5C -0.5,858.5 -0.5,787.5 -0.5,716.5C 13.5276,717.231 27.5276,717.231 41.5,716.5C 44.747,715.451 48.0803,714.784 51.5,714.5C 60.8134,714.307 70.1467,714.641 79.5,715.5C 90.1358,715.328 90.1358,714.828 79.5,714C 97.7775,712.018 116.111,711.185 134.5,711.5C 141.161,712.788 147.828,712.788 154.5,711.5C 160.054,712.097 165.554,712.764 171,713.5C 172.5,712.667 173.667,711.5 174.5,710C 213.595,709.987 252.595,708.987 291.5,707C 354.5,706.333 417.5,706.333 480.5,707C 519.43,708.973 558.43,709.973 597.5,710C 598.308,710.308 598.975,710.808 599.5,711.5C 605.052,712.188 610.552,712.854 616,713.5C 617.085,712.707 618.252,712.04 619.5,711.5C 636.789,712.32 654.123,712.82 671.5,713C 674.687,713.001 677.52,713.834 680,715.5C 681.689,713.24 682.856,710.74 683.5,708C 681.094,706.378 679.261,704.211 678,701.5C 655.267,657.521 632.767,613.687 610.5,570C 610.585,568.893 610.919,567.893 611.5,567C 610.551,566.383 609.718,566.549 609,567.5C 587.203,525.081 565.536,483.414 544,442.5C 543.506,440.866 543.34,439.199 543.5,437.5C 542.5,437.5 541.5,437.5 540.5,437.5C 535.547,424.789 529.547,412.456 522.5,400.5C 521.534,398.604 521.201,396.604 521.5,394.5C 520.5,394.5 519.5,394.5 518.5,394.5C 513.122,381.078 506.622,368.078 499,355.5C 498.316,354.216 498.483,353.049 499.5,352C 498.552,351.517 497.552,351.351 496.5,351.5C 494.725,345.367 491.892,339.7 488,334.5C 485.839,331.169 484.505,327.502 484,323.5C 483.667,323.833 483.333,324.167 483,324.5C 482.506,322.866 482.34,321.199 482.5,319.5C 481.5,319.5 480.5,319.5 479.5,319.5C 477.766,314.053 475.6,308.719 473,303.5C 458.05,274.384 442.884,245.384 427.5,216.5C 426.534,214.604 426.201,212.604 426.5,210.5C 425.5,210.5 424.5,210.5 423.5,210.5C 423.785,208.712 423.452,207.045 422.5,205.5C 419.141,199.443 415.808,193.443 412.5,187.5C 406.1,176.371 399.933,165.038 394,153.5C 393.667,151.833 393.333,150.167 393,148.5C 389.937,144.577 387.437,140.243 385.5,135.5C 384.914,135.709 384.414,136.043 384,136.5C 382.336,129.68 379.503,123.513 375.5,118C 373.01,111.89 370.177,106.056 367,100.5C 366.097,99.2986 364.931,98.4652 363.5,98C 364.503,94.2404 363.336,91.0737 360,88.5C 355.747,77.4938 350.58,66.9938 344.5,57C 335.47,39.6898 326.47,21.8564 317.5,3.5 Z"/></g>
<g><path style="opacity:1" fill="#f6f6f6" d="M 412.5,187.5 C 415.808,193.443 419.141,199.443 422.5,205.5C 423.452,207.045 423.785,208.712 423.5,210.5C 424.5,210.5 425.5,210.5 426.5,210.5C 426.201,212.604 426.534,214.604 427.5,216.5C 442.884,245.384 458.05,274.384 473,303.5C 475.6,308.719 477.766,314.053 479.5,319.5C 480.5,319.5 481.5,319.5 482.5,319.5C 482.34,321.199 482.506,322.866 483,324.5C 483.333,324.167 483.667,323.833 484,323.5C 484.505,327.502 485.839,331.169 488,334.5C 491.892,339.7 494.725,345.367 496.5,351.5C 497.552,351.351 498.552,351.517 499.5,352C 498.483,353.049 498.316,354.216 499,355.5C 506.622,368.078 513.122,381.078 518.5,394.5C 519.5,394.5 520.5,394.5 521.5,394.5C 521.201,396.604 521.534,398.604 522.5,400.5C 529.547,412.456 535.547,424.789 540.5,437.5C 541.5,437.5 542.5,437.5 543.5,437.5C 543.34,439.199 543.506,440.866 544,442.5C 565.536,483.414 587.203,525.081 609,567.5C 609.718,566.549 610.551,566.383 611.5,567C 610.919,567.893 610.585,568.893 610.5,570C 632.767,613.687 655.267,657.521 678,701.5C 679.261,704.211 681.094,706.378 683.5,708C 682.856,710.74 681.689,713.24 680,715.5C 677.52,713.834 674.687,713.001 671.5,713C 654.123,712.82 636.789,712.32 619.5,711.5C 618.252,712.04 617.085,712.707 616,713.5C 610.552,712.854 605.052,712.188 599.5,711.5C 598.975,710.808 598.308,710.308 597.5,710C 558.43,709.973 519.43,708.973 480.5,707C 417.5,706.333 354.5,706.333 291.5,707C 252.595,708.987 213.595,709.987 174.5,710C 173.667,711.5 172.5,712.667 171,713.5C 165.554,712.764 160.054,712.097 154.5,711.5C 147.828,712.788 141.161,712.788 134.5,711.5C 135.323,708.52 136.657,705.853 138.5,703.5C 138.167,705.5 137.833,707.5 137.5,709.5C 216.726,707.607 295.893,705.94 375,704.5C 434.822,704.935 494.656,706.269 554.5,708.5C 558.6,708.053 562.934,707.72 567.5,707.5C 605.176,708.623 642.843,709.957 680.5,711.5C 591.835,538.168 502.668,365.168 413,192.5C 412.292,191.619 411.458,190.953 410.5,190.5C 410.782,189.222 411.449,188.222 412.5,187.5 Z"/></g>
<g><path style="opacity:1" fill="#fefefe" d="M 410.5,190.5 C 411.458,190.953 412.292,191.619 413,192.5C 502.668,365.168 591.835,538.168 680.5,711.5C 642.843,709.957 605.176,708.623 567.5,707.5C 562.934,707.72 558.6,708.053 554.5,708.5C 494.656,706.269 434.822,704.935 375,704.5C 295.893,705.94 216.726,707.607 137.5,709.5C 137.833,707.5 138.167,705.5 138.5,703.5C 144.848,693.164 151.015,682.497 157,671.5C 159.433,666.582 161.6,661.582 163.5,656.5C 172.33,641.987 180.33,626.987 187.5,611.5C 251.179,492.975 314.013,373.975 376,254.5C 379.595,249.977 382.095,244.977 383.5,239.5C 391.783,227.273 398.783,214.273 404.5,200.5C 406.863,197.451 408.863,194.118 410.5,190.5 Z"/></g>
<g><path style="opacity:1" fill="#f6f5fb" d="M 404.5,200.5 C 398.783,214.273 391.783,227.273 383.5,239.5C 389.963,226.021 396.963,213.021 404.5,200.5 Z"/></g>
<g><path style="opacity:1" fill="#f6f5fa" d="M 187.5,611.5 C 180.33,626.987 172.33,641.987 163.5,656.5C 170.656,642.189 177.822,627.855 185,613.5C 185.708,612.619 186.542,611.953 187.5,611.5 Z"/></g>
<g><path style="opacity:1" fill="#f6f6f6" d="M 842.5,1021.5 C 840.742,1019.86 839.242,1017.86 838,1015.5C 809.107,958.204 779.607,901.037 749.5,844C 642.104,850.175 534.77,859.342 427.5,871.5C 291.34,885.757 156.006,904.091 21.5,926.5C 20.8333,926.5 20.5,926.167 20.5,925.5C 23.3084,924.886 25.9751,923.719 28.5,922C 35.1146,922.146 41.4479,921.146 47.5,919C 58.465,917.588 69.465,916.254 80.5,915C 81.1258,914.25 81.6258,913.416 82,912.5C 86.4132,913.632 90.9132,913.799 95.5,913C 101.907,910.899 108.574,909.899 115.5,910C 116.167,909.333 116.833,908.667 117.5,908C 125.406,908.091 133.073,907.091 140.5,905C 164.735,901.295 189.068,898.295 213.5,896C 215.087,895.138 216.754,894.471 218.5,894C 223.5,893.667 228.5,893.333 233.5,893C 240.859,891.449 248.193,890.115 255.5,889C 261.5,888.667 267.5,888.333 273.5,888C 280.979,885.91 288.646,884.91 296.5,885C 298.246,884.529 299.913,883.862 301.5,883C 331.281,879.211 361.281,876.211 391.5,874C 393.5,873.333 395.5,872.667 397.5,872C 403.833,871.667 410.167,871.333 416.5,871C 418.246,870.529 419.913,869.862 421.5,869C 428.5,868.667 435.5,868.333 442.5,868C 445.167,867.333 447.833,866.667 450.5,866C 478.283,863.89 505.95,861.223 533.5,858C 543.721,858.127 553.721,857.127 563.5,855C 571.5,854.667 579.5,854.333 587.5,854C 594.913,851.609 602.413,851.109 610,852.5C 614.496,851.831 618.996,850.998 623.5,850C 645.508,848.665 667.508,847.331 689.5,846C 692.101,845.08 694.768,844.413 697.5,844C 707.833,843.667 718.167,843.333 728.5,843C 733.295,841.439 738.295,840.606 743.5,840.5C 746.206,840.952 748.706,840.952 751,840.5C 751.743,843.511 753.076,846.178 755,848.5C 755.494,850.134 755.66,851.801 755.5,853.5C 756.5,853.5 757.5,853.5 758.5,853.5C 758.34,855.199 758.506,856.866 759,858.5C 775.415,888.763 791.248,919.429 806.5,950.5C 811.405,957.248 815.238,964.581 818,972.5C 818.333,972.167 818.667,971.833 819,971.5C 825.444,986.611 832.777,1001.28 841,1015.5C 841.813,1017.44 842.313,1019.44 842.5,1021.5 Z"/></g>
<g><path style="opacity:1" fill="#fefefe" d="M 842.5,1021.5 C 857.89,1053.28 874.057,1084.61 891,1115.5C 915.749,1165.33 941.249,1214.67 967.5,1263.5C 1034.48,1393.34 1101.31,1523.34 1168,1653.5C 1168.71,1654.38 1169.54,1655.05 1170.5,1655.5C 1178.03,1671.56 1185.86,1687.56 1194,1703.5C 1233,1778.64 1272.16,1853.64 1311.5,1928.5C 1327.74,1961.54 1344.57,1994.21 1362,2026.5C 1395.07,2090.87 1428.07,2155.21 1461,2219.5C 1462.55,2220.59 1463.72,2221.92 1464.5,2223.5C 1464.17,2234.01 1464.51,2244.35 1465.5,2254.5C 1467.5,2254.5 1469.5,2254.5 1471.5,2254.5C 1471.19,2257.25 1471.52,2259.91 1472.5,2262.5C 1475.28,2262.52 1477.95,2263.02 1480.5,2264C 1479.36,2269.75 1479.19,2275.58 1480,2281.5C 1481.01,2282.34 1482.18,2282.67 1483.5,2282.5C 1486.83,2282.5 1490.17,2282.5 1493.5,2282.5C 1495.03,2285.12 1496.37,2287.78 1497.5,2290.5C 1497.81,2293.39 1497.47,2296.05 1496.5,2298.5C 1495.79,2297.6 1494.79,2297.26 1493.5,2297.5C 1493.67,2296.18 1493.34,2295.01 1492.5,2294C 1478.5,2293.33 1464.5,2293.33 1450.5,2294C 1449.87,2294.75 1449.37,2295.58 1449,2296.5C 1448.74,2310.56 1448.57,2324.56 1448.5,2338.5C 1447.17,2338.5 1445.83,2338.5 1444.5,2338.5C 1444.5,2334.83 1444.5,2331.17 1444.5,2327.5C 1444.32,2324.91 1443.32,2322.74 1441.5,2321C 1437.04,2320.13 1432.71,2320.47 1428.5,2322C 1427.2,2322.8 1426.53,2323.97 1426.5,2325.5C 1427.37,2329.79 1427.71,2334.12 1427.5,2338.5C 951.5,2338.5 475.5,2338.5 -0.5,2338.5C -0.5,1881.83 -0.5,1425.17 -0.5,968.5C 7.00956,954.675 14.3429,940.675 21.5,926.5C 156.006,904.091 291.34,885.757 427.5,871.5C 534.77,859.342 642.104,850.175 749.5,844C 779.607,901.037 809.107,958.204 838,1015.5C 839.242,1017.86 840.742,1019.86 842.5,1021.5 Z"/></g>
<g><path style="opacity:1" fill="#f6f6f6" d="M 1041.5,879.5 C 1044.56,883.937 1047.39,888.603 1050,893.5C 1180.5,1147.18 1311.5,1400.51 1443,1653.5C 1447.46,1662.37 1451.62,1671.37 1455.5,1680.5C 1442.32,1657.12 1429.65,1633.12 1417.5,1608.5C 1415.06,1606.89 1413.89,1604.56 1414,1601.5C 1413.33,1600.17 1412.67,1600.17 1412,1601.5C 1411.66,1597.16 1410.32,1593.16 1408,1589.5C 1407.67,1589.83 1407.33,1590.17 1407,1590.5C 1406.67,1588.83 1406.33,1587.17 1406,1585.5C 1404.17,1583.84 1402.84,1581.84 1402,1579.5C 1401.67,1579.83 1401.33,1580.17 1401,1580.5C 1400.67,1578.17 1400.33,1575.83 1400,1573.5C 1399.59,1573.96 1399.09,1574.29 1398.5,1574.5C 1397.91,1571.37 1396.58,1568.71 1394.5,1566.5C 1394.71,1565.91 1395.04,1565.41 1395.5,1565C 1393.4,1562.73 1391.74,1560.23 1390.5,1557.5C 1389.55,1555.95 1389.21,1554.29 1389.5,1552.5C 1388.5,1552.5 1387.5,1552.5 1386.5,1552.5C 1386.66,1550.8 1386.49,1549.13 1386,1547.5C 1376.93,1531.49 1368.59,1515.16 1361,1498.5C 1359.92,1497.33 1359.08,1496 1358.5,1494.5C 1357.68,1493.61 1356.68,1493.28 1355.5,1493.5C 1355.66,1491.8 1355.49,1490.13 1355,1488.5C 1342.67,1464.83 1330.67,1441.16 1319,1417.5C 1317.72,1417.62 1316.55,1417.12 1315.5,1416C 1316.06,1415.28 1316.39,1414.44 1316.5,1413.5C 1299.97,1382.86 1284.14,1351.86 1269,1320.5C 1267.93,1319.81 1266.77,1319.31 1265.5,1319C 1266.38,1317.64 1266.71,1316.14 1266.5,1314.5C 1265.5,1314.5 1264.5,1314.5 1263.5,1314.5C 1260.85,1307.51 1258.18,1300.51 1255.5,1293.5C 1254.5,1293.5 1253.5,1293.5 1252.5,1293.5C 1249.45,1283.54 1244.95,1274.2 1239,1265.5C 1238.51,1264.21 1238.34,1262.87 1238.5,1261.5C 1237.5,1261.5 1236.5,1261.5 1235.5,1261.5C 1234.83,1255.15 1232.5,1249.48 1228.5,1244.5C 1227.55,1242.95 1227.21,1241.29 1227.5,1239.5C 1226.5,1239.5 1225.5,1239.5 1224.5,1239.5C 1224.22,1236.37 1223.38,1233.37 1222,1230.5C 1218.33,1224.16 1214.67,1217.83 1211,1211.5C 1207.94,1204.38 1204.61,1197.38 1201,1190.5C 1200.67,1190.83 1200.33,1191.17 1200,1191.5C 1196.72,1181.43 1192.22,1172.1 1186.5,1163.5C 1182.83,1156.17 1179.17,1148.83 1175.5,1141.5C 1174.55,1139.95 1174.21,1138.29 1174.5,1136.5C 1173.5,1136.5 1172.5,1136.5 1171.5,1136.5C 1171.66,1134.8 1171.49,1133.13 1171,1131.5C 1165.81,1121.86 1160.48,1112.19 1155,1102.5C 1154.51,1101.21 1154.34,1099.87 1154.5,1098.5C 1153.45,1098.65 1152.45,1098.48 1151.5,1098C 1152.52,1096.95 1152.68,1095.78 1152,1094.5C 1148.41,1088.57 1144.91,1082.57 1141.5,1076.5C 1139.97,1070.45 1137.14,1065.11 1133,1060.5C 1127.71,1048.6 1122.04,1036.93 1116,1025.5C 1115.25,1024.87 1114.42,1024.37 1113.5,1024C 1113.31,1022.57 1113.31,1021.07 1113.5,1019.5C 1112.96,1017.73 1112.13,1017.4 1111,1018.5C 1110.67,1016.83 1110.33,1015.17 1110,1013.5C 1104.47,1004.13 1099.14,994.462 1094,984.5C 1092.39,979.644 1089.72,974.644 1086,969.5C 1083.76,966.276 1082.59,962.61 1082.5,958.5C 1081.5,958.5 1080.5,958.5 1079.5,958.5C 1079.79,956.712 1079.45,955.045 1078.5,953.5C 1075.34,948.885 1072.84,943.885 1071,938.5C 1070.17,937 1069,935.833 1067.5,935C 1067.96,934.586 1068.29,934.086 1068.5,933.5C 1066.15,931.754 1065.15,929.421 1065.5,926.5C 1064.5,926.5 1063.5,926.5 1062.5,926.5C 1062.66,924.801 1062.49,923.134 1062,921.5C 1054.58,907.784 1047.74,893.784 1041.5,879.5 Z"/></g>
<g><path style="opacity:1" fill="#f1f0f7" d="M 20.5,925.5 C 20.5,926.167 20.8333,926.5 21.5,926.5C 14.3429,940.675 7.00956,954.675 -0.5,968.5C -0.5,955.5 -0.5,942.5 -0.5,929.5C 5.98784,927.874 12.4878,926.207 19,924.5C 19.3826,925.056 19.8826,925.389 20.5,925.5 Z"/></g>
<g><path style="opacity:1" fill="#f6f6f6" d="M 842.5,1021.5 C 844.294,1023.8 846.294,1025.96 848.5,1028C 847.448,1029.72 848.114,1030.72 850.5,1031C 850.167,1031.33 849.833,1031.67 849.5,1032C 850.227,1033.4 850.727,1034.9 851,1036.5C 851.667,1037.83 852.333,1037.83 853,1036.5C 853.684,1037.78 853.517,1038.95 852.5,1040C 854.551,1042.16 856.051,1044.66 857,1047.5C 859.752,1046.14 860.252,1046.81 858.5,1049.5C 860.717,1052.07 861.884,1055.07 862,1058.5C 862.333,1058.17 862.667,1057.83 863,1057.5C 864.128,1059.35 864.628,1061.35 864.5,1063.5C 865.5,1063.5 866.5,1063.5 867.5,1063.5C 867.343,1064.87 867.51,1066.21 868,1067.5C 900.228,1130.72 933.061,1194.06 966.5,1257.5C 967.466,1259.4 967.799,1261.4 967.5,1263.5C 941.249,1214.67 915.749,1165.33 891,1115.5C 874.057,1084.61 857.89,1053.28 842.5,1021.5 Z"/></g>
<g><path style="opacity:1" fill="#f6f6f6" d="M 967.5,1263.5 C 973.356,1271.12 978.022,1279.62 981.5,1289C 982.798,1291.9 984.631,1294.4 987,1296.5C 987.617,1297.45 987.451,1298.28 986.5,1299C 1003.16,1329.15 1019.5,1360.31 1035.5,1392.5C 1036.09,1392.29 1036.59,1391.96 1037,1391.5C 1037.26,1395.42 1038.26,1399.09 1040,1402.5C 1044.46,1407.42 1047.29,1413.08 1048.5,1419.5C 1049.5,1419.5 1050.5,1419.5 1051.5,1419.5C 1051.34,1421.2 1051.51,1422.87 1052,1424.5C 1083.25,1484.52 1113.92,1543.85 1144,1602.5C 1144.75,1603.13 1145.58,1603.63 1146.5,1604C 1146.17,1604.33 1145.83,1604.67 1145.5,1605C 1152.54,1619.24 1160.04,1633.41 1168,1647.5C 1169.14,1650.1 1169.97,1652.77 1170.5,1655.5C 1169.54,1655.05 1168.71,1654.38 1168,1653.5C 1101.31,1523.34 1034.48,1393.34 967.5,1263.5 Z"/></g>
<g><path style="opacity:1" fill="#fbfaf5" d="M 382.5,1280.5 C 383.833,1374.9 383.833,1469.4 382.5,1564C 287.597,1564.83 192.763,1564.67 98,1563.5C 97.1667,1468.83 97.3333,1374.16 98.5,1279.5C 193.46,1278.34 288.46,1278.17 383.5,1279C 382.944,1279.38 382.611,1279.88 382.5,1280.5 Z"/></g>
<g><path style="opacity:1" fill="#f9f6f0" d="M 382.5,1280.5 C 382.667,1374.5 382.5,1468.5 382,1562.5C 287.904,1563.5 193.737,1563.83 99.5,1563.5C 99.3333,1469.17 99.5,1374.83 100,1280.5C 194.265,1280.51 288.431,1280.51 382.5,1280.5 Z"/></g>
<g><path style="opacity:1" fill="#fbf9f5" d="M 495.5,1278.5 C 589.501,1278.33 683.501,1278.5 777.5,1279C 778,1279.5 778.5,1280 779,1280.5C 779.832,1375.07 779.665,1469.57 778.5,1564C 683.498,1564.83 588.498,1564.67 493.5,1563.5C 493.822,1468.94 493.488,1374.27 492.5,1279.5C 493.791,1279.74 494.791,1279.4 495.5,1278.5 Z"/></g>
<g><path style="opacity:1" fill="#faf7f0" d="M 495.5,1280.5 C 588.834,1280.33 682.167,1280.5 775.5,1281C 776,1281.5 776.5,1282 777,1282.5C 777.667,1375.5 777.667,1468.5 777,1561.5C 776.5,1562 776,1562.5 775.5,1563C 682.165,1563.83 588.832,1563.67 495.5,1562.5C 495.492,1468.62 495.492,1374.62 495.5,1280.5 Z"/></g>
<g><path style="opacity:1" fill="#f6f6f6" d="M 1170.5,1655.5 C 1172.76,1657.43 1174.59,1659.76 1176,1662.5C 1176.88,1666.04 1178.21,1669.37 1180,1672.5C 1181.07,1673.19 1182.23,1673.69 1183.5,1674C 1182.11,1675.96 1182.28,1677.8 1184,1679.5C 1184.33,1678.5 1184.67,1677.5 1185,1676.5C 1185.19,1678.9 1185.69,1681.23 1186.5,1683.5C 1200.63,1710.88 1214.13,1737.54 1227,1763.5C 1254.86,1815.99 1282.03,1868.66 1308.5,1921.5C 1309.38,1922.25 1310.38,1922.75 1311.5,1923C 1310.86,1924.71 1310.86,1926.54 1311.5,1928.5C 1272.16,1853.64 1233,1778.64 1194,1703.5C 1185.86,1687.56 1178.03,1671.56 1170.5,1655.5 Z"/></g>
<g><path style="opacity:1" fill="#fbf9f5" d="M 495.5,1664.5 C 589,1665.83 682.5,1665.83 776,1664.5C 777,1665.17 778,1665.83 779,1666.5C 779.832,1761.07 779.665,1855.57 778.5,1950C 683.93,1950.17 589.43,1950.67 495,1951.5C 493.692,1949.87 492.858,1948.03 492.5,1946C 493.832,1853.83 493.832,1761.66 492.5,1669.5C 492.757,1667.31 493.757,1665.64 495.5,1664.5 Z"/></g>
<g><path style="opacity:1" fill="#fbf9f5" d="M 380.5,1664.5 C 381.15,1664.8 381.817,1665.14 382.5,1665.5C 383.667,1760.16 383.833,1854.83 383,1949.5C 382.333,1950.17 381.667,1950.83 381,1951.5C 287.667,1950.17 194.333,1950.17 101,1951.5C 100,1950.5 99,1949.5 98,1948.5C 97.3333,1854.5 97.3333,1760.5 98,1666.5C 192.264,1665.83 286.431,1665.17 380.5,1664.5 Z"/></g>
<g><path style="opacity:1" fill="#faf7f0" d="M 99.5,1666.5 C 193.833,1666.5 288.167,1666.5 382.5,1666.5C 382.5,1760.5 382.5,1854.5 382.5,1948.5C 288.167,1948.5 193.833,1948.5 99.5,1948.5C 99.5,1854.5 99.5,1760.5 99.5,1666.5 Z"/></g>
<g><path style="opacity:1" fill="#faf7f0" d="M 495.5,1666.5 C 589.167,1666.33 682.834,1666.5 776.5,1667C 777.499,1760.76 777.832,1854.6 777.5,1948.5C 683.5,1948.5 589.5,1948.5 495.5,1948.5C 495.494,1854.29 495.494,1760.29 495.5,1666.5 Z"/></g>
<g><path style="opacity:1" fill="#f6f6f6" d="M 1455.5,1680.5 C 1457.22,1682.25 1458.72,1684.25 1460,1686.5C 1482.02,1729.53 1504.35,1772.53 1527,1815.5C 1548.13,1857.72 1569.29,1899.72 1590.5,1941.5C 1588.78,1939.75 1587.28,1937.75 1586,1935.5C 1573.04,1910.59 1560.38,1885.59 1548,1860.5C 1517.83,1804.08 1488,1746.42 1458.5,1687.5C 1457.62,1686.75 1456.62,1686.25 1455.5,1686C 1456.54,1684.22 1456.54,1682.39 1455.5,1680.5 Z"/></g>
<g><path style="opacity:1" fill="#f6f6f6" d="M 1464.5,2223.5 C 1463.72,2221.92 1462.55,2220.59 1461,2219.5C 1428.07,2155.21 1395.07,2090.87 1362,2026.5C 1344.57,1994.21 1327.74,1961.54 1311.5,1928.5C 1312.12,1928.39 1312.62,1928.06 1313,1927.5C 1313.49,1928.79 1313.66,1930.13 1313.5,1931.5C 1314.5,1931.5 1315.5,1931.5 1316.5,1931.5C 1316.34,1933.2 1316.51,1934.87 1317,1936.5C 1337.82,1976.74 1358.15,2016.41 1378,2055.5C 1381.89,2060.7 1384.73,2066.37 1386.5,2072.5C 1387.55,2072.35 1388.55,2072.52 1389.5,2073C 1388.48,2074.05 1388.32,2075.22 1389,2076.5C 1396.2,2088.55 1402.87,2101.55 1409,2115.5C 1409.67,2116.83 1410.33,2116.83 1411,2115.5C 1411.49,2116.55 1411.33,2117.55 1410.5,2118.5C 1412.82,2122.81 1414.98,2127.15 1417,2131.5C 1418.67,2133.83 1420.33,2136.17 1422,2138.5C 1432.7,2161.54 1444.54,2184.54 1457.5,2207.5C 1458.45,2209.05 1458.79,2210.71 1458.5,2212.5C 1459.5,2212.5 1460.5,2212.5 1461.5,2212.5C 1461.34,2214.2 1461.51,2215.87 1462,2217.5C 1462.04,2211 1462.71,2204.66 1464,2198.5C 1464.5,2206.83 1464.67,2215.16 1464.5,2223.5 Z"/></g>
<g><path style="opacity:1" fill="#e9e9e9" d="M 1577.5,2163.5 C 1592.32,2162.5 1607.32,2162.17 1622.5,2162.5C 1622.5,2164.17 1622.5,2165.83 1622.5,2167.5C 1621.57,2166.43 1621.23,2165.1 1621.5,2163.5C 1618.15,2163.33 1614.82,2163.5 1611.5,2164C 1613.59,2165.35 1615.93,2165.85 1618.5,2165.5C 1618.5,2166.5 1618.5,2167.5 1618.5,2168.5C 1607.17,2168.5 1595.83,2168.5 1584.5,2168.5C 1592.01,2167.83 1599.68,2167.17 1607.5,2166.5C 1598.44,2165.2 1589.44,2165.2 1580.5,2166.5C 1580.41,2165.5 1580.75,2164.67 1581.5,2164C 1580.21,2163.51 1578.87,2163.34 1577.5,2163.5 Z"/></g>
<g><path style="opacity:1" fill="#efefef" d="M 1584.5,2168.5 C 1583.51,2179.99 1583.17,2191.65 1583.5,2203.5C 1583.5,2203.83 1583.5,2204.17 1583.5,2204.5C 1582.5,2204.5 1581.5,2204.5 1580.5,2204.5C 1580.5,2191.83 1580.5,2179.17 1580.5,2166.5C 1589.44,2165.2 1598.44,2165.2 1607.5,2166.5C 1599.68,2167.17 1592.01,2167.83 1584.5,2168.5 Z"/></g>
<g><path style="opacity:1" fill="#e0e0e0" d="M 1577.5,2163.5 C 1578.87,2163.34 1580.21,2163.51 1581.5,2164C 1580.75,2164.67 1580.41,2165.5 1580.5,2166.5C 1580.5,2179.17 1580.5,2191.83 1580.5,2204.5C 1581.5,2204.5 1582.5,2204.5 1583.5,2204.5C 1583.5,2205.5 1583.5,2206.5 1583.5,2207.5C 1581.5,2207.5 1579.5,2207.5 1577.5,2207.5C 1577.5,2192.83 1577.5,2178.17 1577.5,2163.5 Z"/></g>
<g><path style="opacity:1" fill="#dcddde" d="M 1584.5,2168.5 C 1595.83,2168.5 1607.17,2168.5 1618.5,2168.5C 1618.5,2180.17 1618.5,2191.83 1618.5,2203.5C 1606.83,2203.5 1595.17,2203.5 1583.5,2203.5C 1583.17,2191.65 1583.51,2179.99 1584.5,2168.5 Z"/></g>
<g><path style="opacity:1" fill="#e2e2e3" d="M 1623.5,2198.5 C 1629.18,2198.33 1634.84,2198.5 1640.5,2199C 1642.04,2200.11 1642.7,2201.61 1642.5,2203.5C 1642.17,2203.5 1641.83,2203.5 1641.5,2203.5C 1640.79,2202.6 1639.79,2202.26 1638.5,2202.5C 1634.83,2202.5 1631.17,2202.5 1627.5,2202.5C 1627.63,2201.76 1627.46,2201.09 1627,2200.5C 1625.7,2199.92 1624.53,2199.25 1623.5,2198.5 Z"/></g>
<g><path style="opacity:1" fill="#dcdcde" d="M 1465.5,2201.5 C 1483.68,2202.91 1501.84,2203.25 1520,2202.5C 1521.63,2203.29 1523.13,2204.29 1524.5,2205.5C 1525.67,2223.16 1525.83,2240.82 1525,2258.5C 1511.58,2259.49 1498.08,2259.82 1484.5,2259.5C 1480.83,2259.5 1477.17,2259.5 1473.5,2259.5C 1473.88,2257.3 1473.21,2255.64 1471.5,2254.5C 1471.5,2253.5 1471.5,2252.5 1471.5,2251.5C 1472.5,2236.01 1472.83,2220.34 1472.5,2204.5C 1471.17,2204.5 1469.83,2204.5 1468.5,2204.5C 1468.5,2214.17 1468.5,2223.83 1468.5,2233.5C 1468.5,2239.5 1468.5,2245.5 1468.5,2251.5C 1468.63,2252.38 1468.3,2253.04 1467.5,2253.5C 1466.83,2245.68 1466.17,2238.01 1465.5,2230.5C 1465.5,2220.83 1465.5,2211.17 1465.5,2201.5 Z"/></g>
<g><path style="opacity:1" fill="#f2e4de" d="M 1627.5,2202.5 C 1631.17,2202.5 1634.83,2202.5 1638.5,2202.5C 1638.5,2203.17 1638.5,2203.83 1638.5,2204.5C 1634.5,2204.5 1630.5,2204.5 1626.5,2204.5C 1626.33,2203.51 1626.66,2202.84 1627.5,2202.5 Z"/></g>
<g><path style="opacity:1" fill="#e5e5e6" d="M 1525.5,2261.5 C 1514.16,2261.67 1502.83,2261.5 1491.5,2261C 1488.96,2260.81 1486.63,2260.31 1484.5,2259.5C 1498.08,2259.82 1511.58,2259.49 1525,2258.5C 1525.83,2240.82 1525.67,2223.16 1524.5,2205.5C 1523.13,2204.29 1521.63,2203.29 1520,2202.5C 1501.84,2203.25 1483.68,2202.91 1465.5,2201.5C 1466.49,2199.97 1467.99,2199.31 1470,2199.5C 1487.43,2201.24 1504.93,2202.07 1522.5,2202C 1523.89,2203.02 1525.39,2203.85 1527,2204.5C 1527.67,2223.17 1527.67,2241.83 1527,2260.5C 1526.62,2261.06 1526.12,2261.39 1525.5,2261.5 Z"/></g>
<g><path style="opacity:1" fill="#f4f4f4" d="M 1471.5,2251.5 C 1470.5,2251.5 1469.5,2251.5 1468.5,2251.5C 1468.5,2245.5 1468.5,2239.5 1468.5,2233.5C 1469.17,2224.32 1469.83,2214.99 1470.5,2205.5C 1471.5,2220.82 1471.83,2236.15 1471.5,2251.5 Z"/></g>
<g><path style="opacity:1" fill="#e9e9e9" d="M 1471.5,2251.5 C 1471.83,2236.15 1471.5,2220.82 1470.5,2205.5C 1469.83,2214.99 1469.17,2224.32 1468.5,2233.5C 1468.5,2223.83 1468.5,2214.17 1468.5,2204.5C 1469.83,2204.5 1471.17,2204.5 1472.5,2204.5C 1472.83,2220.34 1472.5,2236.01 1471.5,2251.5 Z"/></g>
<g><path style="opacity:1" fill="#cbccce" d="M 1583.5,2207.5 C 1583.5,2206.5 1583.5,2205.5 1583.5,2204.5C 1595.5,2204.5 1607.5,2204.5 1619.5,2204.5C 1619.17,2192.81 1619.5,2181.15 1620.5,2169.5C 1621.49,2181.84 1621.99,2194.17 1622,2206.5C 1609.25,2207.49 1596.41,2207.82 1583.5,2207.5 Z"/></g>
<g><path style="opacity:1" fill="#d8d9da" d="M 1622.5,2167.5 C 1622.17,2178.01 1622.51,2188.35 1623.5,2198.5C 1624.53,2199.25 1625.7,2199.92 1627,2200.5C 1627.46,2201.09 1627.63,2201.76 1627.5,2202.5C 1626.66,2202.84 1626.33,2203.51 1626.5,2204.5C 1624.6,2207.34 1623.93,2210.67 1624.5,2214.5C 1624.17,2214.5 1623.83,2214.5 1623.5,2214.5C 1622.96,2212.88 1622.63,2211.22 1622.5,2209.5C 1609.12,2210.15 1596.12,2209.48 1583.5,2207.5C 1596.41,2207.82 1609.25,2207.49 1622,2206.5C 1621.99,2194.17 1621.49,2181.84 1620.5,2169.5C 1619.5,2181.15 1619.17,2192.81 1619.5,2204.5C 1607.5,2204.5 1595.5,2204.5 1583.5,2204.5C 1583.5,2204.17 1583.5,2203.83 1583.5,2203.5C 1595.17,2203.5 1606.83,2203.5 1618.5,2203.5C 1618.5,2191.83 1618.5,2180.17 1618.5,2168.5C 1618.5,2167.5 1618.5,2166.5 1618.5,2165.5C 1615.93,2165.85 1613.59,2165.35 1611.5,2164C 1614.82,2163.5 1618.15,2163.33 1621.5,2163.5C 1621.23,2165.1 1621.57,2166.43 1622.5,2167.5 Z"/></g>
<g><path style="opacity:1" fill="#e0d3ce" d="M 1638.5,2202.5 C 1639.79,2202.26 1640.79,2202.6 1641.5,2203.5C 1641.81,2207.37 1641.48,2211.04 1640.5,2214.5C 1641.07,2210.67 1640.4,2207.34 1638.5,2204.5C 1638.5,2203.83 1638.5,2203.17 1638.5,2202.5 Z"/></g>
<g><path style="opacity:1" fill="#efccc1" d="M 1626.5,2204.5 C 1630.5,2204.5 1634.5,2204.5 1638.5,2204.5C 1639.39,2207.05 1639.72,2209.72 1639.5,2212.5C 1635.17,2212.5 1630.83,2212.5 1626.5,2212.5C 1626.5,2209.83 1626.5,2207.17 1626.5,2204.5 Z"/></g>
<g><path style="opacity:1" fill="#fcfcf7" d="M 1618.5,2211.5 C 1619.76,2211.46 1620.76,2211.96 1621.5,2213C 1591.83,2213.67 1562.17,2213.67 1532.5,2213C 1561.34,2212.83 1590,2212.33 1618.5,2211.5 Z"/></g>
<g><path style="opacity:1" fill="#e2cfc9" d="M 1626.5,2204.5 C 1626.5,2207.17 1626.5,2209.83 1626.5,2212.5C 1626.79,2213.65 1627.62,2214.32 1629,2214.5C 1632.46,2215.29 1635.96,2215.62 1639.5,2215.5C 1635.37,2216.48 1631.03,2216.82 1626.5,2216.5C 1625.83,2216.17 1625.17,2215.83 1624.5,2215.5C 1624.5,2215.17 1624.5,2214.83 1624.5,2214.5C 1623.93,2210.67 1624.6,2207.34 1626.5,2204.5 Z"/></g>
<g><path style="opacity:1" fill="#dfc2ba" d="M 1638.5,2204.5 C 1640.4,2207.34 1641.07,2210.67 1640.5,2214.5C 1640.5,2215.17 1640.17,2215.5 1639.5,2215.5C 1635.96,2215.62 1632.46,2215.29 1629,2214.5C 1627.62,2214.32 1626.79,2213.65 1626.5,2212.5C 1630.83,2212.5 1635.17,2212.5 1639.5,2212.5C 1639.72,2209.72 1639.39,2207.05 1638.5,2204.5 Z"/></g>
<g><path style="opacity:1" fill="#aba7cc" d="M 1533.5,2216.5 C 1561.83,2216.5 1590.17,2216.5 1618.5,2216.5C 1590.67,2217.5 1562.67,2217.83 1534.5,2217.5C 1534.5,2218.83 1534.5,2220.17 1534.5,2221.5C 1534.5,2221.83 1534.5,2222.17 1534.5,2222.5C 1534.5,2236.5 1534.5,2250.5 1534.5,2264.5C 1533.5,2248.68 1533.17,2232.68 1533.5,2216.5 Z"/></g>
<g><path style="opacity:1" fill="#efe8e5" d="M 1641.5,2203.5 C 1641.83,2203.5 1642.17,2203.5 1642.5,2203.5C 1642.8,2208.1 1642.47,2212.6 1641.5,2217C 1636.32,2217.82 1631.32,2217.65 1626.5,2216.5C 1631.03,2216.82 1635.37,2216.48 1639.5,2215.5C 1640.17,2215.5 1640.5,2215.17 1640.5,2214.5C 1641.48,2211.04 1641.81,2207.37 1641.5,2203.5 Z"/></g>
<g><path style="opacity:1" fill="#a19cc5" d="M 1618.5,2216.5 C 1619.83,2216.5 1620.5,2217.17 1620.5,2218.5C 1592.71,2218.36 1564.71,2218.52 1536.5,2219C 1535.93,2219.99 1535.27,2220.83 1534.5,2221.5C 1534.5,2220.17 1534.5,2218.83 1534.5,2217.5C 1562.67,2217.83 1590.67,2217.5 1618.5,2216.5 Z"/></g>
<g><path style="opacity:1" fill="#a4a0c5" d="M 1620.5,2218.5 C 1620.5,2220.5 1620.5,2222.5 1620.5,2224.5C 1591.89,2223.8 1563.22,2223.13 1534.5,2222.5C 1534.5,2222.17 1534.5,2221.83 1534.5,2221.5C 1535.27,2220.83 1535.93,2219.99 1536.5,2219C 1564.71,2218.52 1592.71,2218.36 1620.5,2218.5 Z"/></g>
<g><path style="opacity:1" fill="#cdcdcf" d="M 1518.5,2251.5 C 1518.5,2239.83 1518.5,2228.17 1518.5,2216.5C 1519.4,2215.4 1520.23,2215.4 1521,2216.5C 1521.5,2228.83 1521.67,2241.16 1521.5,2253.5C 1519.82,2253.71 1518.82,2253.05 1518.5,2251.5 Z"/></g>
<g><path style="opacity:1" fill="#d4d3e1" d="M 1532.5,2215.5 C 1532.83,2215.5 1533.17,2215.5 1533.5,2215.5C 1533.5,2215.83 1533.5,2216.17 1533.5,2216.5C 1532.5,2232.66 1532.17,2248.99 1532.5,2265.5C 1532.17,2265.5 1531.83,2265.5 1531.5,2265.5C 1531.5,2249.17 1531.5,2232.83 1531.5,2216.5C 1531.5,2215.83 1531.83,2215.5 1532.5,2215.5 Z"/></g>
<g><path style="opacity:1" fill="#bebbd6" d="M 1533.5,2216.5 C 1533.17,2232.68 1533.5,2248.68 1534.5,2264.5C 1543.83,2265.17 1553.17,2265.83 1562.5,2266.5C 1562.5,2279.5 1562.5,2292.5 1562.5,2305.5C 1561.83,2292.5 1561.17,2279.5 1560.5,2266.5C 1551.17,2266.5 1541.83,2266.5 1532.5,2266.5C 1532.5,2266.17 1532.5,2265.83 1532.5,2265.5C 1532.17,2248.99 1532.5,2232.66 1533.5,2216.5 Z"/></g>
<g><path style="opacity:1" fill="#a6a1c8" d="M 1534.5,2222.5 C 1563.22,2223.13 1591.89,2223.8 1620.5,2224.5C 1621.16,2251.52 1620.49,2278.19 1618.5,2304.5C 1618.5,2277.83 1618.5,2251.17 1618.5,2224.5C 1591.83,2224.5 1565.17,2224.5 1538.5,2224.5C 1538.5,2237.17 1538.5,2249.83 1538.5,2262.5C 1545.84,2262.33 1553.17,2262.5 1560.5,2263C 1551.81,2263.33 1543.15,2263.83 1534.5,2264.5C 1534.5,2250.5 1534.5,2236.5 1534.5,2222.5 Z"/></g>
<g><path style="opacity:1" fill="#aba7cd" d="M 1618.5,2304.5 C 1600.17,2304.5 1581.83,2304.5 1563.5,2304.5C 1563.83,2291.66 1563.5,2278.99 1562.5,2266.5C 1553.17,2265.83 1543.83,2265.17 1534.5,2264.5C 1543.15,2263.83 1551.81,2263.33 1560.5,2263C 1553.17,2262.5 1545.84,2262.33 1538.5,2262.5C 1538.5,2249.83 1538.5,2237.17 1538.5,2224.5C 1565.17,2224.5 1591.83,2224.5 1618.5,2224.5C 1618.5,2251.17 1618.5,2277.83 1618.5,2304.5 Z"/></g>
<g><path style="opacity:1" fill="#e2e1e8" d="M 1532.5,2215.5 C 1562.66,2214.5 1593,2214.17 1623.5,2214.5C 1623.83,2214.5 1624.17,2214.5 1624.5,2214.5C 1624.5,2214.83 1624.5,2215.17 1624.5,2215.5C 1624.5,2216.83 1624.5,2218.17 1624.5,2219.5C 1624.83,2220.17 1625.17,2220.83 1625.5,2221.5C 1624.8,2249.58 1624.47,2277.91 1624.5,2306.5C 1623.83,2306.83 1623.17,2307.17 1622.5,2307.5C 1622.5,2306.83 1622.5,2306.17 1622.5,2305.5C 1623.17,2290.67 1623.5,2275.67 1623.5,2260.5C 1623.5,2245.15 1622.83,2230.15 1621.5,2215.5C 1592.17,2215.5 1562.83,2215.5 1533.5,2215.5C 1533.17,2215.5 1532.83,2215.5 1532.5,2215.5 Z"/></g>
<g><path style="opacity:1" fill="#d3d4d6" d="M 1518.5,2251.5 C 1518.82,2253.05 1519.82,2253.71 1521.5,2253.5C 1521.67,2241.16 1521.5,2228.83 1521,2216.5C 1520.23,2215.4 1519.4,2215.4 1518.5,2216.5C 1518.33,2212.49 1518.5,2208.49 1519,2204.5C 1520.15,2203.54 1521.15,2203.88 1522,2205.5C 1522.5,2221.83 1522.67,2238.16 1522.5,2254.5C 1506.15,2254.83 1489.82,2254.5 1473.5,2253.5C 1474.03,2252.81 1474.69,2252.31 1475.5,2252C 1489.83,2251.5 1504.16,2251.33 1518.5,2251.5 Z"/></g>
<g><path style="opacity:1" fill="#e7e8e8" d="M 1465.5,2230.5 C 1466.17,2238.01 1466.83,2245.68 1467.5,2253.5C 1468.3,2253.04 1468.63,2252.38 1468.5,2251.5C 1469.5,2251.5 1470.5,2251.5 1471.5,2251.5C 1471.5,2252.5 1471.5,2253.5 1471.5,2254.5C 1469.5,2254.5 1467.5,2254.5 1465.5,2254.5C 1465.5,2246.5 1465.5,2238.5 1465.5,2230.5 Z"/></g>
<g><path style="opacity:1" fill="#d3d3d5" d="M 1627.5,2306.5 C 1627.5,2306.83 1627.5,2307.17 1627.5,2307.5C 1627.84,2309.48 1627.18,2310.82 1625.5,2311.5C 1624.55,2310.08 1624.22,2308.41 1624.5,2306.5C 1625.33,2288 1625.83,2269.34 1626,2250.5C 1626.17,2269.34 1626.67,2288 1627.5,2306.5 Z"/></g>
<g><path style="opacity:1" fill="#e6e6e6" d="M 1624.5,2219.5 C 1626.12,2219.36 1627.29,2220.03 1628,2221.5C 1628.5,2249.83 1628.67,2278.16 1628.5,2306.5C 1636.83,2306.5 1645.17,2306.5 1653.5,2306.5C 1653.5,2307.17 1653.5,2307.83 1653.5,2308.5C 1645.91,2308.19 1638.41,2308.52 1631,2309.5C 1630.5,2317.83 1630.33,2326.16 1630.5,2334.5C 1628.75,2334.58 1627.75,2333.75 1627.5,2332C 1627.93,2323.52 1627.93,2315.35 1627.5,2307.5C 1627.5,2307.17 1627.5,2306.83 1627.5,2306.5C 1627.84,2277.98 1627.17,2249.65 1625.5,2221.5C 1625.17,2220.83 1624.83,2220.17 1624.5,2219.5 Z"/></g>
<g><path style="opacity:1" fill="#dad8e6" d="M 1621.5,2216.5 C 1621.5,2216.17 1621.5,2215.83 1621.5,2215.5C 1622.83,2230.15 1623.5,2245.15 1623.5,2260.5C 1623.5,2275.67 1623.17,2290.67 1622.5,2305.5C 1622.83,2275.66 1622.5,2246 1621.5,2216.5 Z"/></g>
<g><path style="opacity:1" fill="#dbdadd" d="M 1625.5,2221.5 C 1627.17,2249.65 1627.84,2277.98 1627.5,2306.5C 1626.67,2288 1626.17,2269.34 1626,2250.5C 1625.83,2269.34 1625.33,2288 1624.5,2306.5C 1624.47,2277.91 1624.8,2249.58 1625.5,2221.5 Z"/></g>
<g><path style="opacity:1" fill="#ebebec" d="M 1471.5,2254.5 C 1473.21,2255.64 1473.88,2257.3 1473.5,2259.5C 1477.17,2259.5 1480.83,2259.5 1484.5,2259.5C 1486.63,2260.31 1488.96,2260.81 1491.5,2261C 1502.83,2261.5 1514.16,2261.67 1525.5,2261.5C 1514.34,2262.33 1503.01,2262.83 1491.5,2263C 1491.17,2263.33 1490.83,2263.67 1490.5,2264C 1492.71,2264.19 1494.71,2264.69 1496.5,2265.5C 1492.3,2265.18 1488.3,2265.52 1484.5,2266.5C 1483.19,2268.57 1482.52,2271.07 1482.5,2274C 1482.55,2276.92 1482.88,2279.75 1483.5,2282.5C 1482.18,2282.67 1481.01,2282.34 1480,2281.5C 1479.19,2275.58 1479.36,2269.75 1480.5,2264C 1477.95,2263.02 1475.28,2262.52 1472.5,2262.5C 1471.52,2259.91 1471.19,2257.25 1471.5,2254.5 Z"/></g>
<g><path style="opacity:1" fill="#e8e8ea" d="M 1531.5,2216.5 C 1531.5,2232.83 1531.5,2249.17 1531.5,2265.5C 1520.83,2266.17 1510.17,2266.83 1499.5,2267.5C 1509.36,2265.82 1519.53,2264.82 1530,2264.5C 1530.17,2248.33 1530.67,2232.33 1531.5,2216.5 Z"/></g>
<g><path style="opacity:1" fill="#dcddde" d="M 1531.5,2265.5 C 1531.83,2265.5 1532.17,2265.5 1532.5,2265.5C 1532.5,2265.83 1532.5,2266.17 1532.5,2266.5C 1532.84,2267.34 1533.51,2267.67 1534.5,2267.5C 1534.41,2282.05 1534.57,2296.72 1535,2311.5C 1543.08,2312.48 1551.25,2312.82 1559.5,2312.5C 1559.5,2319.83 1559.5,2327.17 1559.5,2334.5C 1539.83,2334.5 1520.17,2334.5 1500.5,2334.5C 1500.7,2316.48 1500.37,2298.48 1499.5,2280.5C 1499.5,2276.17 1499.5,2271.83 1499.5,2267.5C 1510.17,2266.83 1520.83,2266.17 1531.5,2265.5 Z"/></g>
<g><path style="opacity:1" fill="#eecbbf" d="M 1485.5,2267.5 C 1488.83,2266.17 1492.17,2266.17 1495.5,2267.5C 1493.59,2270.68 1492.92,2274.35 1493.5,2278.5C 1491.17,2278.5 1488.83,2278.5 1486.5,2278.5C 1486.81,2274.63 1486.48,2270.96 1485.5,2267.5 Z"/></g>
<g><path style="opacity:1" fill="#ddddde" d="M 1557.5,2267.5 C 1559.48,2280.12 1560.15,2293.12 1559.5,2306.5C 1552.83,2306.5 1546.17,2306.5 1539.5,2306.5C 1539.75,2293.8 1539.42,2281.14 1538.5,2268.5C 1545.02,2268.82 1551.36,2268.49 1557.5,2267.5 Z"/></g>
<g><path style="opacity:1" fill="#d4d5d8" d="M 1534.5,2267.5 C 1542.17,2267.5 1549.83,2267.5 1557.5,2267.5C 1551.36,2268.49 1545.02,2268.82 1538.5,2268.5C 1539.42,2281.14 1539.75,2293.8 1539.5,2306.5C 1546.17,2306.5 1552.83,2306.5 1559.5,2306.5C 1559.83,2306.5 1560.17,2306.5 1560.5,2306.5C 1580.76,2307.49 1601.09,2307.82 1621.5,2307.5C 1601.67,2308.5 1581.67,2308.83 1561.5,2308.5C 1561.77,2310.38 1561.1,2311.71 1559.5,2312.5C 1551.25,2312.82 1543.08,2312.48 1535,2311.5C 1534.57,2296.72 1534.41,2282.05 1534.5,2267.5 Z"/></g>
<g><path style="opacity:1" fill="#d3d2da" d="M 1532.5,2266.5 C 1541.83,2266.5 1551.17,2266.5 1560.5,2266.5C 1560.5,2279.83 1560.5,2293.17 1560.5,2306.5C 1560.17,2306.5 1559.83,2306.5 1559.5,2306.5C 1560.15,2293.12 1559.48,2280.12 1557.5,2267.5C 1549.83,2267.5 1542.17,2267.5 1534.5,2267.5C 1533.51,2267.67 1532.84,2267.34 1532.5,2266.5 Z"/></g>
<g><path style="opacity:1" fill="#f1d4c9" d="M 1485.5,2267.5 C 1486.48,2270.96 1486.81,2274.63 1486.5,2278.5C 1488.83,2278.5 1491.17,2278.5 1493.5,2278.5C 1493.5,2278.83 1493.5,2279.17 1493.5,2279.5C 1490.5,2279.5 1487.5,2279.5 1484.5,2279.5C 1484.5,2275.83 1484.5,2272.17 1484.5,2268.5C 1485.17,2268.5 1485.5,2268.17 1485.5,2267.5 Z"/></g>
<g><path style="opacity:1" fill="#dfbcb2" d="M 1495.5,2267.5 C 1496.09,2271.97 1495.42,2275.97 1493.5,2279.5C 1493.5,2279.17 1493.5,2278.83 1493.5,2278.5C 1492.92,2274.35 1493.59,2270.68 1495.5,2267.5 Z"/></g>
<g><path style="opacity:1" fill="#e4d4d0" d="M 1496.5,2265.5 C 1497.83,2270.83 1497.83,2276.17 1496.5,2281.5C 1492.82,2281.67 1489.15,2281.5 1485.5,2281C 1484.94,2280.62 1484.61,2280.12 1484.5,2279.5C 1487.5,2279.5 1490.5,2279.5 1493.5,2279.5C 1495.42,2275.97 1496.09,2271.97 1495.5,2267.5C 1492.17,2266.17 1488.83,2266.17 1485.5,2267.5C 1485.5,2268.17 1485.17,2268.5 1484.5,2268.5C 1484.5,2267.83 1484.5,2267.17 1484.5,2266.5C 1488.3,2265.52 1492.3,2265.18 1496.5,2265.5 Z"/></g>
<g><path style="opacity:1" fill="#ede4e2" d="M 1484.5,2266.5 C 1484.5,2267.17 1484.5,2267.83 1484.5,2268.5C 1484.5,2272.17 1484.5,2275.83 1484.5,2279.5C 1484.61,2280.12 1484.94,2280.62 1485.5,2281C 1489.15,2281.5 1492.82,2281.67 1496.5,2281.5C 1495.79,2282.4 1494.79,2282.74 1493.5,2282.5C 1490.17,2282.5 1486.83,2282.5 1483.5,2282.5C 1482.88,2279.75 1482.55,2276.92 1482.5,2274C 1482.52,2271.07 1483.19,2268.57 1484.5,2266.5 Z"/></g>
<g><path style="opacity:1" fill="#f2f2f3" d="M 1497.5,2290.5 C 1497.83,2290.5 1498.17,2290.5 1498.5,2290.5C 1499.17,2305.49 1499.67,2320.49 1500,2335.5C 1507.83,2336.18 1515.67,2336.85 1523.5,2337.5C 1523.5,2337.83 1523.5,2338.17 1523.5,2338.5C 1514.5,2338.5 1505.5,2338.5 1496.5,2338.5C 1496.5,2325.5 1496.5,2312.5 1496.5,2299.5C 1496.5,2299.17 1496.5,2298.83 1496.5,2298.5C 1497.47,2296.05 1497.81,2293.39 1497.5,2290.5 Z"/></g>
<g><path style="opacity:1" fill="#f4f4f4" d="M 1493.5,2297.5 C 1492.17,2297.5 1490.83,2297.5 1489.5,2297.5C 1484.04,2296.17 1478.21,2295.5 1472,2295.5C 1466.17,2295.67 1460.33,2295.83 1454.5,2296C 1453.58,2296.37 1452.75,2296.87 1452,2297.5C 1451.33,2309.17 1451.33,2320.83 1452,2332.5C 1452.2,2334.38 1452.7,2336.05 1453.5,2337.5C 1453.5,2337.83 1453.5,2338.17 1453.5,2338.5C 1451.83,2338.5 1450.17,2338.5 1448.5,2338.5C 1448.57,2324.56 1448.74,2310.56 1449,2296.5C 1449.37,2295.58 1449.87,2294.75 1450.5,2294C 1464.5,2293.33 1478.5,2293.33 1492.5,2294C 1493.34,2295.01 1493.67,2296.18 1493.5,2297.5 Z"/></g>
<g><path style="opacity:1" fill="#fdfcfc" d="M 1489.5,2297.5 C 1478.19,2298.36 1466.86,2298.69 1455.5,2298.5C 1453.52,2311.12 1452.85,2324.12 1453.5,2337.5C 1452.7,2336.05 1452.2,2334.38 1452,2332.5C 1451.33,2320.83 1451.33,2309.17 1452,2297.5C 1452.75,2296.87 1453.58,2296.37 1454.5,2296C 1460.33,2295.83 1466.17,2295.67 1472,2295.5C 1478.21,2295.5 1484.04,2296.17 1489.5,2297.5 Z"/></g>
<g><path style="opacity:1" fill="#dddce9" d="M 1489.5,2297.5 C 1490.83,2297.5 1492.17,2297.5 1493.5,2297.5C 1494.79,2297.26 1495.79,2297.6 1496.5,2298.5C 1496.5,2298.83 1496.5,2299.17 1496.5,2299.5C 1482.83,2299.5 1469.17,2299.5 1455.5,2299.5C 1455.5,2299.17 1455.5,2298.83 1455.5,2298.5C 1466.86,2298.69 1478.19,2298.36 1489.5,2297.5 Z"/></g>
<g><path style="opacity:1" fill="#ebebf5" d="M 1455.5,2298.5 C 1455.5,2298.83 1455.5,2299.17 1455.5,2299.5C 1454.5,2312.32 1454.17,2325.32 1454.5,2338.5C 1454.17,2338.5 1453.83,2338.5 1453.5,2338.5C 1453.5,2338.17 1453.5,2337.83 1453.5,2337.5C 1452.85,2324.12 1453.52,2311.12 1455.5,2298.5 Z"/></g>
<g><path style="opacity:1" fill="#b7b3d3" d="M 1533.5,2216.5 C 1533.5,2216.17 1533.5,2215.83 1533.5,2215.5C 1562.83,2215.5 1592.17,2215.5 1621.5,2215.5C 1621.5,2215.83 1621.5,2216.17 1621.5,2216.5C 1621.5,2246.5 1621.5,2276.5 1621.5,2306.5C 1601.66,2306.83 1581.99,2306.5 1562.5,2305.5C 1562.5,2292.5 1562.5,2279.5 1562.5,2266.5C 1563.5,2278.99 1563.83,2291.66 1563.5,2304.5C 1581.83,2304.5 1600.17,2304.5 1618.5,2304.5C 1620.49,2278.19 1621.16,2251.52 1620.5,2224.5C 1620.5,2222.5 1620.5,2220.5 1620.5,2218.5C 1620.5,2217.17 1619.83,2216.5 1618.5,2216.5C 1590.17,2216.5 1561.83,2216.5 1533.5,2216.5 Z"/></g>
<g><path style="opacity:1" fill="#b0aed2" d="M 1455.5,2299.5 C 1469.17,2299.5 1482.83,2299.5 1496.5,2299.5C 1496.5,2312.5 1496.5,2325.5 1496.5,2338.5C 1496.17,2338.5 1495.83,2338.5 1495.5,2338.5C 1495.5,2325.83 1495.5,2313.17 1495.5,2300.5C 1493.83,2300.5 1492.17,2300.5 1490.5,2300.5C 1479.17,2300.5 1467.83,2300.5 1456.5,2300.5C 1456.5,2312.83 1456.5,2325.17 1456.5,2337.5C 1456.5,2337.83 1456.5,2338.17 1456.5,2338.5C 1455.83,2338.5 1455.17,2338.5 1454.5,2338.5C 1454.17,2325.32 1454.5,2312.32 1455.5,2299.5 Z"/></g>
<g><path style="opacity:1" fill="#938fc2" d="M 1490.5,2300.5 C 1490.5,2300.83 1490.5,2301.17 1490.5,2301.5C 1479.5,2301.5 1468.5,2301.5 1457.5,2301.5C 1457.83,2313.68 1457.5,2325.68 1456.5,2337.5C 1456.5,2325.17 1456.5,2312.83 1456.5,2300.5C 1467.83,2300.5 1479.17,2300.5 1490.5,2300.5 Z"/></g>
<g><path style="opacity:1" fill="#c7c6d9" d="M 1621.5,2216.5 C 1622.5,2246 1622.83,2275.66 1622.5,2305.5C 1622.5,2306.17 1622.5,2306.83 1622.5,2307.5C 1622.17,2307.5 1621.83,2307.5 1621.5,2307.5C 1601.09,2307.82 1580.76,2307.49 1560.5,2306.5C 1560.5,2293.17 1560.5,2279.83 1560.5,2266.5C 1561.17,2279.5 1561.83,2292.5 1562.5,2305.5C 1581.99,2306.5 1601.66,2306.83 1621.5,2306.5C 1621.5,2276.5 1621.5,2246.5 1621.5,2216.5 Z"/></g>
<g><path style="opacity:1" fill="#c8c9cb" d="M 1539.5,2306.5 C 1545.78,2308.14 1552.45,2309.14 1559.5,2309.5C 1551.65,2309.23 1543.65,2309.56 1535.5,2310.5C 1535.17,2298.15 1535.5,2285.82 1536.5,2273.5C 1537.09,2273.71 1537.59,2274.04 1538,2274.5C 1538.17,2285.34 1538.67,2296.01 1539.5,2306.5 Z"/></g>
<g><path style="opacity:1" fill="#e5e5e5" d="M 1499.5,2280.5 C 1500.37,2298.48 1500.7,2316.48 1500.5,2334.5C 1520.17,2334.5 1539.83,2334.5 1559.5,2334.5C 1559.5,2327.17 1559.5,2319.83 1559.5,2312.5C 1561.1,2311.71 1561.77,2310.38 1561.5,2308.5C 1581.67,2308.83 1601.67,2308.5 1621.5,2307.5C 1621.83,2307.5 1622.17,2307.5 1622.5,2307.5C 1623.17,2307.17 1623.83,2306.83 1624.5,2306.5C 1624.22,2308.41 1624.55,2310.08 1625.5,2311.5C 1625.33,2319.17 1625.5,2326.84 1626,2334.5C 1626.38,2335.94 1627.21,2336.94 1628.5,2337.5C 1628.5,2337.83 1628.5,2338.17 1628.5,2338.5C 1627.83,2338.5 1627.17,2338.5 1626.5,2338.5C 1626.22,2337.71 1625.72,2337.04 1625,2336.5C 1624.82,2328.59 1624.32,2320.75 1623.5,2313C 1603.16,2312.17 1582.83,2312.33 1562.5,2313.5C 1561.85,2321.36 1561.18,2329.2 1560.5,2337C 1548.17,2337.5 1535.84,2337.67 1523.5,2337.5C 1515.67,2336.85 1507.83,2336.18 1500,2335.5C 1499.67,2320.49 1499.17,2305.49 1498.5,2290.5C 1498.19,2286.96 1498.52,2283.62 1499.5,2280.5 Z"/></g>
<g><path style="opacity:1" fill="#dcddde" d="M 1653.5,2308.5 C 1653.5,2308.83 1653.5,2309.17 1653.5,2309.5C 1652.51,2317.65 1652.17,2325.98 1652.5,2334.5C 1645.17,2334.5 1637.83,2334.5 1630.5,2334.5C 1630.33,2326.16 1630.5,2317.83 1631,2309.5C 1638.41,2308.52 1645.91,2308.19 1653.5,2308.5 Z"/></g>
<g><path style="opacity:1" fill="#dddddd" d="M 1627.5,2307.5 C 1627.93,2315.35 1627.93,2323.52 1627.5,2332C 1627.75,2333.75 1628.75,2334.58 1630.5,2334.5C 1629.45,2335.22 1628.78,2336.22 1628.5,2337.5C 1627.21,2336.94 1626.38,2335.94 1626,2334.5C 1625.5,2326.84 1625.33,2319.17 1625.5,2311.5C 1627.18,2310.82 1627.84,2309.48 1627.5,2307.5 Z"/></g>
<g><path style="opacity:1" fill="#8783bb" d="M 1490.5,2301.5 C 1489.54,2313.12 1489.21,2324.78 1489.5,2336.5C 1478.78,2335.86 1468.45,2336.52 1458.5,2338.5C 1457.83,2338.5 1457.17,2338.5 1456.5,2338.5C 1456.5,2338.17 1456.5,2337.83 1456.5,2337.5C 1457.5,2325.68 1457.83,2313.68 1457.5,2301.5C 1468.5,2301.5 1479.5,2301.5 1490.5,2301.5 Z"/></g>
<g><path style="opacity:1" fill="#f2f2f2" d="M 1626.5,2338.5 C 1592.17,2338.5 1557.83,2338.5 1523.5,2338.5C 1523.5,2338.17 1523.5,2337.83 1523.5,2337.5C 1535.84,2337.67 1548.17,2337.5 1560.5,2337C 1561.18,2329.2 1561.85,2321.36 1562.5,2313.5C 1582.83,2312.33 1603.16,2312.17 1623.5,2313C 1624.32,2320.75 1624.82,2328.59 1625,2336.5C 1625.72,2337.04 1626.22,2337.71 1626.5,2338.5 Z"/></g>
<g><path style="opacity:1" fill="#f7f7f7" d="M 1444.5,2327.5 C 1439.26,2326.55 1433.93,2326.22 1428.5,2326.5C 1428.24,2330.6 1428.57,2334.6 1429.5,2338.5C 1428.83,2338.5 1428.17,2338.5 1427.5,2338.5C 1427.71,2334.12 1427.37,2329.79 1426.5,2325.5C 1426.53,2323.97 1427.2,2322.8 1428.5,2322C 1432.71,2320.47 1437.04,2320.13 1441.5,2321C 1443.32,2322.74 1444.32,2324.91 1444.5,2327.5 Z"/></g>
<g><path style="opacity:1" fill="#d5d6d8" d="M 1653.5,2309.5 C 1653.5,2319.17 1653.5,2328.83 1653.5,2338.5C 1645.17,2338.5 1636.83,2338.5 1628.5,2338.5C 1628.5,2338.17 1628.5,2337.83 1628.5,2337.5C 1628.78,2336.22 1629.45,2335.22 1630.5,2334.5C 1637.83,2334.5 1645.17,2334.5 1652.5,2334.5C 1652.17,2325.98 1652.51,2317.65 1653.5,2309.5 Z"/></g>
<g><path style="opacity:1" fill="#817cb3" d="M 1490.5,2300.5 C 1492.17,2300.5 1493.83,2300.5 1495.5,2300.5C 1495.5,2313.17 1495.5,2325.83 1495.5,2338.5C 1495.17,2338.5 1494.83,2338.5 1494.5,2338.5C 1494.83,2326.15 1494.5,2313.82 1493.5,2301.5C 1492.81,2302.03 1492.31,2302.69 1492,2303.5C 1491.81,2315.24 1491.31,2326.91 1490.5,2338.5C 1479.83,2338.5 1469.17,2338.5 1458.5,2338.5C 1468.45,2336.52 1478.78,2335.86 1489.5,2336.5C 1489.21,2324.78 1489.54,2313.12 1490.5,2301.5C 1490.5,2301.17 1490.5,2300.83 1490.5,2300.5 Z"/></g>
<g><path style="opacity:1" fill="#7570a6" d="M 1494.5,2338.5 C 1493.17,2338.5 1491.83,2338.5 1490.5,2338.5C 1491.31,2326.91 1491.81,2315.24 1492,2303.5C 1492.31,2302.69 1492.81,2302.03 1493.5,2301.5C 1494.5,2313.82 1494.83,2326.15 1494.5,2338.5 Z"/></g>
<g><path style="opacity:1" fill="#e2e2e3" d="M 1444.5,2327.5 C 1444.5,2331.17 1444.5,2334.83 1444.5,2338.5C 1439.5,2338.5 1434.5,2338.5 1429.5,2338.5C 1428.57,2334.6 1428.24,2330.6 1428.5,2326.5C 1433.93,2326.22 1439.26,2326.55 1444.5,2327.5 Z"/></g>
<g><path style="opacity:1" fill="#d7d8da" d="M 1439.5,2327.5 C 1440.5,2327.5 1441.5,2327.5 1442.5,2327.5C 1442.46,2330.88 1442.79,2334.21 1443.5,2337.5C 1439.17,2337.5 1434.83,2337.5 1430.5,2337.5C 1430.5,2334.5 1430.5,2331.5 1430.5,2328.5C 1433.71,2328.81 1436.71,2328.48 1439.5,2327.5 Z"/></g>
</svg>
