<svg id="svg" version="1.1" xmlns="http://www.w3.org/2000/svg" xmlns:xlink="http://www.w3.org/1999/xlink" width="400" height="279.931640625" viewBox="0, 0, 400,279.931640625"><g id="svgg"><path id="path0" d="M15.833 126.333 L 15.833 208.000 26.583 208.000 L 37.333 208.000 37.333 175.508 L 37.333 143.015 37.723 142.633 C 37.938 142.422,39.944 140.489,42.182 138.337 C 44.419 136.185,47.112 133.591,48.167 132.573 C 52.680 128.213,53.477 127.471,53.610 127.505 C 53.753 127.543,54.063 127.987,57.968 133.750 C 59.210 135.583,60.913 138.096,61.753 139.333 C 62.593 140.571,64.242 143.008,65.418 144.750 C 69.052 150.132,74.327 157.929,76.919 161.750 C 78.568 164.181,80.253 166.671,84.083 172.333 C 85.105 173.846,86.831 176.396,87.918 178.000 C 89.004 179.604,90.829 182.304,91.973 184.000 C 93.118 185.696,94.817 188.208,95.749 189.583 C 96.681 190.958,98.406 193.508,99.583 195.250 C 101.768 198.483,103.440 200.951,106.498 205.458 L 108.222 208.000 120.371 208.000 C 130.045 208.000,132.494 207.958,132.395 207.792 C 132.326 207.677,131.770 206.833,131.160 205.917 C 130.550 205.000,129.263 203.050,128.301 201.583 C 127.339 200.117,125.465 197.267,124.137 195.250 C 122.809 193.233,121.010 190.496,120.138 189.167 C 119.267 187.838,117.442 185.063,116.084 183.000 C 113.243 178.687,110.639 174.728,108.134 170.917 C 102.584 162.470,97.239 154.344,93.250 148.289 C 91.967 146.341,89.758 142.985,88.342 140.832 C 86.925 138.678,84.383 134.817,82.693 132.250 C 79.236 127.002,77.578 124.480,74.257 119.417 C 72.995 117.492,71.634 115.434,71.232 114.845 C 70.610 113.930,70.535 113.735,70.723 113.511 C 70.845 113.368,71.500 112.576,72.180 111.753 C 72.860 110.930,73.579 110.067,73.778 109.836 C 73.977 109.606,75.615 107.654,77.418 105.500 C 79.222 103.346,80.859 101.394,81.057 101.164 C 81.255 100.933,82.726 99.170,84.327 97.247 C 85.928 95.324,87.280 93.712,87.332 93.667 C 87.384 93.621,88.358 92.458,89.496 91.083 C 90.634 89.708,91.608 88.546,91.660 88.500 C 91.712 88.454,92.090 88.004,92.500 87.500 C 92.910 86.996,93.289 86.546,93.342 86.500 C 93.395 86.454,94.931 84.617,96.754 82.417 C 98.577 80.217,100.111 78.379,100.163 78.333 C 100.248 78.259,105.031 72.555,105.665 71.773 C 105.804 71.602,105.994 71.377,106.089 71.273 C 106.184 71.169,107.983 69.021,110.087 66.500 C 112.191 63.979,113.951 61.879,113.998 61.833 C 114.046 61.788,115.394 60.175,116.995 58.250 C 118.595 56.325,119.949 54.712,120.004 54.667 C 120.059 54.621,121.035 53.458,122.173 52.083 C 123.310 50.708,124.406 49.396,124.607 49.167 C 124.808 48.938,125.727 47.850,126.649 46.750 L 128.326 44.750 115.371 44.704 L 102.417 44.659 101.935 45.204 C 101.168 46.074,100.646 46.679,99.668 47.835 C 99.164 48.430,98.714 48.954,98.667 49.000 C 98.620 49.046,98.172 49.571,97.672 50.167 C 97.172 50.762,96.460 51.591,96.090 52.007 C 94.995 53.239,94.487 53.830,93.087 55.500 C 92.357 56.371,91.720 57.121,91.671 57.167 C 91.621 57.212,91.169 57.737,90.666 58.332 C 90.162 58.926,89.552 59.639,89.311 59.915 C 89.069 60.191,85.891 63.904,82.249 68.167 C 78.607 72.429,75.429 76.142,75.188 76.418 C 74.947 76.694,74.337 77.406,73.833 78.000 C 73.329 78.594,72.721 79.306,72.482 79.582 C 72.244 79.858,71.307 80.946,70.402 82.000 C 69.496 83.054,68.559 84.142,68.319 84.417 C 67.578 85.265,65.773 87.386,65.268 88.000 C 65.005 88.321,64.395 89.033,63.914 89.583 C 63.433 90.133,60.059 94.071,56.416 98.333 C 52.773 102.596,49.595 106.309,49.354 106.585 C 49.114 106.861,48.504 107.573,48.000 108.167 C 47.496 108.761,46.886 109.472,46.645 109.748 C 46.403 110.024,44.380 112.388,42.147 115.000 C 39.915 117.612,37.919 119.937,37.711 120.165 L 37.333 120.580 37.333 82.623 L 37.333 44.667 26.583 44.667 L 15.833 44.667 15.833 126.333 M271.390 45.765 C 270.585 47.296,269.303 49.739,268.250 51.750 C 267.723 52.758,266.936 54.258,266.501 55.083 C 266.067 55.908,265.128 57.708,264.416 59.083 C 263.704 60.458,262.804 62.183,262.416 62.917 C 261.017 65.559,260.021 67.460,258.749 69.917 C 258.037 71.292,257.250 72.792,256.999 73.250 C 256.748 73.708,255.960 75.208,255.248 76.583 C 254.536 77.958,253.675 79.608,253.334 80.250 C 252.993 80.892,252.132 82.542,251.419 83.917 C 250.706 85.292,249.843 86.942,249.500 87.583 C 248.474 89.502,247.285 91.769,245.914 94.417 C 245.203 95.792,244.341 97.442,243.999 98.083 C 241.089 103.540,240.800 104.167,241.199 104.165 C 241.411 104.164,243.571 104.019,246.000 103.843 C 248.429 103.668,252.254 103.436,254.500 103.329 C 256.746 103.221,258.868 103.085,259.217 103.025 C 259.926 102.904,259.613 103.421,263.408 96.083 C 264.308 94.342,265.400 92.242,265.835 91.417 C 266.269 90.592,267.186 88.829,267.874 87.500 C 270.162 83.080,271.203 81.077,274.461 74.833 C 275.059 73.688,275.939 72.000,276.418 71.083 C 276.896 70.167,277.983 68.067,278.834 66.417 C 279.685 64.767,280.445 63.345,280.524 63.258 C 280.852 62.894,280.468 62.017,276.287 53.599 L 271.908 44.781 271.390 45.765 M248.583 119.250 C 247.300 119.460,245.725 119.712,245.083 119.812 C 240.226 120.567,231.561 122.050,231.462 122.144 C 231.348 122.252,228.819 127.055,221.706 140.667 C 219.527 144.838,218.749 146.320,218.165 147.417 C 217.824 148.058,216.999 149.633,216.333 150.917 C 215.667 152.200,214.842 153.775,214.499 154.417 C 214.156 155.058,213.330 156.633,212.665 157.917 C 211.296 160.555,209.994 163.047,208.834 165.250 C 208.400 166.075,207.612 167.575,207.084 168.583 C 206.556 169.592,205.768 171.092,205.334 171.917 C 204.900 172.742,204.037 174.392,203.417 175.583 C 202.798 176.775,201.935 178.425,201.500 179.250 C 201.065 180.075,200.240 181.650,199.667 182.750 C 199.093 183.850,198.268 185.425,197.834 186.250 C 196.405 188.964,195.225 191.218,194.083 193.417 C 192.968 195.562,191.604 198.173,190.250 200.750 C 189.865 201.483,189.047 203.040,188.433 204.208 L 187.317 206.333 192.784 206.311 C 195.790 206.298,200.036 206.242,202.219 206.186 L 206.187 206.083 207.438 203.667 C 208.801 201.031,212.036 194.813,214.331 190.417 C 214.857 189.408,215.945 187.308,216.749 185.750 C 217.553 184.192,218.491 182.392,218.834 181.750 C 219.177 181.108,220.078 179.383,220.835 177.917 C 221.593 176.450,222.605 174.500,223.084 173.583 C 223.563 172.667,224.499 170.867,225.164 169.583 C 226.400 167.201,227.627 164.846,229.333 161.583 C 229.860 160.575,230.874 158.625,231.586 157.250 C 232.297 155.875,233.233 154.075,233.666 153.250 C 234.098 152.425,235.072 150.550,235.830 149.083 C 236.588 147.617,237.639 145.592,238.167 144.583 C 239.165 142.674,240.562 139.992,242.333 136.583 C 245.024 131.402,245.773 129.964,246.585 128.417 C 247.066 127.500,248.080 125.550,248.839 124.083 C 249.598 122.617,250.507 120.867,250.859 120.194 C 251.212 119.522,251.500 118.941,251.500 118.902 C 251.500 118.793,251.072 118.844,248.583 119.250 " stroke="none" fill="#14447c" fill-rule="evenodd"></path><path id="path1" d="M306.154 182.208 C 304.727 183.429,302.603 185.241,295.167 191.583 C 292.921 193.498,290.070 195.932,288.831 196.991 C 287.591 198.050,286.373 199.077,286.122 199.274 L 285.667 199.631 285.667 201.899 L 285.667 204.167 297.274 204.167 L 308.881 204.167 308.816 192.584 L 308.750 181.000 308.158 181.000 C 307.664 181.000,307.332 181.200,306.154 182.208 M78.667 214.433 C 78.346 214.471,77.765 214.543,77.375 214.594 L 76.667 214.687 76.667 221.427 L 76.667 228.167 77.917 228.167 L 79.167 228.167 79.167 225.309 L 79.167 222.452 80.246 222.553 C 81.960 222.713,82.346 223.138,82.920 225.500 C 83.064 226.096,83.298 226.940,83.438 227.375 L 83.693 228.167 85.031 228.167 C 86.238 228.167,86.358 228.138,86.255 227.875 C 86.193 227.715,85.881 226.609,85.563 225.417 C 84.952 223.130,84.737 222.656,84.025 222.026 C 83.706 221.744,83.646 221.611,83.808 221.548 C 86.133 220.648,86.506 216.741,84.404 215.303 C 83.352 214.583,80.752 214.189,78.667 214.433 M112.333 214.600 C 109.150 215.586,107.280 219.696,108.268 223.533 C 110.019 230.329,119.369 229.859,120.654 222.911 C 121.702 217.239,117.468 213.010,112.333 214.600 M158.000 214.444 C 157.679 214.475,157.098 214.543,156.708 214.594 L 156.000 214.687 156.000 221.410 L 156.000 228.134 157.894 228.252 C 164.412 228.659,168.008 225.779,167.623 220.457 C 167.300 215.988,163.903 213.864,158.000 214.444 M208.667 214.441 C 201.457 217.201,202.725 228.330,210.250 228.330 C 216.179 228.330,219.153 220.320,214.830 215.996 C 213.524 214.690,210.204 213.852,208.667 214.441 M259.583 214.432 C 259.308 214.471,258.765 214.544,258.375 214.595 L 257.667 214.687 257.667 221.427 L 257.667 228.167 258.917 228.167 L 260.167 228.167 260.168 225.625 L 260.169 223.083 261.543 223.060 C 265.214 222.998,267.322 220.740,266.665 217.575 C 266.185 215.261,263.173 213.925,259.583 214.432 M272.833 214.433 C 272.512 214.471,271.931 214.543,271.542 214.594 L 270.833 214.687 270.833 221.427 L 270.833 228.167 272.083 228.167 L 273.333 228.167 273.335 225.625 L 273.336 223.083 274.793 223.061 C 277.846 223.015,279.602 221.760,279.982 219.352 C 280.537 215.845,277.663 213.868,272.833 214.433 M286.167 214.444 C 285.846 214.475,285.265 214.543,284.875 214.594 L 284.167 214.687 284.167 221.427 L 284.167 228.167 285.417 228.167 L 286.667 228.167 286.667 225.309 L 286.667 222.452 287.746 222.553 C 289.477 222.714,289.871 223.137,290.414 225.417 C 290.567 226.058,290.805 226.940,290.943 227.375 L 291.193 228.167 292.531 228.167 C 293.676 228.167,293.855 228.129,293.769 227.906 C 293.714 227.763,293.441 226.769,293.161 225.698 C 292.505 223.180,292.386 222.898,291.693 222.204 C 291.179 221.690,291.146 221.608,291.401 221.466 C 293.932 220.049,293.989 216.350,291.500 215.068 C 290.329 214.465,288.333 214.231,286.167 214.444 M322.323 214.638 C 320.823 215.242,320.001 216.169,319.745 217.543 C 319.356 219.638,320.401 220.960,323.479 222.268 C 325.704 223.214,326.276 224.313,325.180 225.539 C 324.548 226.246,322.192 226.332,320.785 225.699 C 320.205 225.438,319.971 225.396,319.927 225.545 C 319.257 227.810,319.505 228.063,322.602 228.282 C 326.606 228.565,329.060 226.134,328.127 222.812 C 327.899 222.001,326.625 220.916,325.221 220.338 C 323.267 219.534,322.561 219.080,322.357 218.497 C 321.836 217.000,323.577 216.020,325.750 216.586 C 326.300 216.730,326.851 216.863,326.973 216.882 C 327.112 216.903,327.313 216.546,327.501 215.944 L 327.806 214.972 327.195 214.705 C 326.238 214.288,323.291 214.247,322.323 214.638 M49.005 217.363 C 49.010 220.373,49.006 220.348,49.987 223.583 C 50.383 224.890,50.345 224.764,50.887 226.583 L 51.285 227.917 52.284 227.966 L 53.283 228.015 53.657 226.990 C 54.082 225.825,56.582 218.258,56.711 217.750 C 56.757 217.567,56.805 217.754,56.817 218.167 C 56.850 219.243,57.136 224.629,57.262 226.542 L 57.369 228.167 58.605 228.167 L 59.841 228.167 59.754 226.875 C 59.657 225.434,59.397 220.889,59.250 218.083 C 59.197 217.075,59.111 215.856,59.058 215.375 L 58.962 214.500 57.334 214.500 C 55.927 214.500,55.694 214.540,55.619 214.792 C 55.572 214.952,55.140 216.208,54.660 217.583 C 54.180 218.958,53.504 221.058,53.158 222.250 C 52.811 223.442,52.490 224.304,52.444 224.167 C 52.398 224.029,52.200 223.272,52.003 222.483 C 51.303 219.680,49.552 214.586,49.268 214.529 C 49.030 214.482,49.001 214.795,49.005 217.363 M64.333 221.333 L 64.333 228.167 68.417 228.167 L 72.500 228.167 72.500 227.083 L 72.500 226.000 69.667 226.000 L 66.833 226.000 66.833 224.083 L 66.833 222.167 69.417 222.167 L 72.000 222.167 72.000 221.083 L 72.000 220.000 69.417 220.000 L 66.833 220.000 66.833 218.333 L 66.833 216.667 69.500 216.667 L 72.167 216.667 72.167 215.583 L 72.167 214.500 68.250 214.500 L 64.333 214.500 64.333 221.333 M96.333 221.333 L 96.333 228.167 97.667 228.167 L 99.000 228.167 99.000 225.250 L 99.000 222.333 101.500 222.333 L 104.000 222.333 104.000 221.333 L 104.000 220.333 101.500 220.333 L 99.000 220.333 99.000 218.500 L 99.000 216.667 101.667 216.667 L 104.333 216.667 104.333 215.583 L 104.333 214.500 100.333 214.500 L 96.333 214.500 96.333 221.333 M124.837 218.625 C 124.841 224.449,125.094 225.766,126.459 227.092 C 128.269 228.850,132.044 228.773,133.923 226.940 C 135.363 225.535,135.500 224.858,135.500 219.149 L 135.500 214.500 134.250 214.500 L 133.000 214.500 133.000 218.821 C 133.000 224.674,132.714 225.660,130.871 226.157 C 128.189 226.879,127.500 225.430,127.500 219.062 L 127.500 214.500 126.167 214.500 L 124.833 214.500 124.837 218.625 M140.333 221.333 L 140.333 228.167 141.500 228.167 L 142.667 228.167 142.670 223.042 L 142.674 217.917 143.558 219.583 C 144.045 220.500,145.348 222.787,146.455 224.667 L 148.467 228.083 149.817 228.132 L 151.167 228.180 151.167 221.340 L 151.167 214.500 149.991 214.500 L 148.815 214.500 148.866 219.459 L 148.917 224.418 148.163 222.917 C 147.749 222.092,146.587 220.049,145.580 218.377 C 144.574 216.706,143.652 215.150,143.533 214.919 C 143.325 214.519,143.248 214.500,141.824 214.500 L 140.333 214.500 140.333 221.333 M174.781 214.625 C 174.742 214.694,174.507 215.387,174.260 216.167 C 173.756 217.757,171.110 226.015,170.740 227.155 C 170.608 227.561,170.500 227.954,170.500 228.030 C 170.500 228.105,171.084 228.167,171.797 228.167 L 173.094 228.167 173.672 226.251 L 174.250 224.334 176.380 224.334 C 177.938 224.333,178.528 224.389,178.577 224.542 C 178.613 224.656,178.882 225.519,179.175 226.458 L 179.706 228.167 181.092 228.167 L 182.477 228.167 182.323 227.625 C 182.238 227.327,182.098 226.896,182.011 226.667 C 181.863 226.277,178.957 217.300,178.356 215.377 L 178.083 214.505 176.468 214.502 C 175.580 214.501,174.821 214.556,174.781 214.625 M183.500 215.583 L 183.500 216.667 185.417 216.667 L 187.333 216.667 187.333 222.417 L 187.333 228.167 188.583 228.167 L 189.833 228.167 189.833 222.417 L 189.833 216.667 191.750 216.667 L 193.667 216.667 193.667 215.583 L 193.667 214.500 188.583 214.500 L 183.500 214.500 183.500 215.583 M197.333 221.333 L 197.333 228.167 198.583 228.167 L 199.833 228.167 199.833 221.333 L 199.833 214.500 198.583 214.500 L 197.333 214.500 197.333 221.333 M220.833 221.333 L 220.833 228.167 222.110 228.167 L 223.387 228.167 223.284 222.958 L 223.181 217.750 224.024 219.417 C 224.488 220.333,225.813 222.677,226.969 224.625 L 229.071 228.167 230.369 228.167 L 231.667 228.167 231.667 221.333 L 231.667 214.500 230.479 214.500 L 229.291 214.500 229.363 219.411 C 229.402 222.112,229.422 224.306,229.408 224.286 C 229.394 224.266,228.974 223.463,228.475 222.500 C 227.976 221.537,226.718 219.344,225.679 217.625 L 223.792 214.500 222.312 214.500 L 220.833 214.500 220.833 221.333 M245.630 215.875 C 244.319 219.982,242.271 226.376,241.998 227.215 L 241.684 228.180 243.037 228.132 L 244.390 228.083 244.602 227.417 C 244.718 227.050,244.971 226.206,245.164 225.542 L 245.514 224.333 247.662 224.333 L 249.810 224.333 250.086 225.292 C 250.238 225.819,250.500 226.662,250.669 227.167 L 250.975 228.083 252.321 228.132 C 253.868 228.187,253.821 228.264,253.264 226.611 C 253.042 225.954,252.062 222.960,251.086 219.958 L 249.312 214.500 247.690 214.500 L 246.069 214.500 245.630 215.875 M301.083 214.708 C 301.042 214.823,300.640 216.079,300.188 217.500 C 299.737 218.921,298.797 221.857,298.100 224.026 C 297.404 226.194,296.833 228.013,296.833 228.068 C 296.833 228.122,297.428 228.167,298.155 228.167 L 299.476 228.167 299.747 227.208 C 299.895 226.681,300.151 225.838,300.314 225.333 L 300.611 224.417 302.667 224.370 C 305.051 224.315,304.790 224.124,305.520 226.455 L 306.056 228.167 307.445 228.167 C 308.208 228.167,308.833 228.148,308.832 228.125 C 308.831 228.102,308.120 225.908,307.253 223.250 C 306.385 220.592,305.394 217.535,305.050 216.458 L 304.424 214.500 302.790 214.500 C 301.633 214.500,301.135 214.561,301.083 214.708 M312.667 221.333 L 312.667 228.167 314.000 228.167 L 315.333 228.167 315.333 221.333 L 315.333 214.500 314.000 214.500 L 312.667 214.500 312.667 221.333 M334.829 217.708 C 332.936 223.616,332.628 224.574,332.063 226.315 C 331.753 227.267,331.500 228.073,331.500 228.107 C 331.500 228.140,332.093 228.167,332.819 228.167 L 334.137 228.167 334.580 226.708 C 334.824 225.906,335.080 225.063,335.150 224.833 C 335.278 224.417,335.280 224.417,337.424 224.417 L 339.571 224.417 340.161 226.290 L 340.750 228.164 342.125 228.165 C 342.881 228.166,343.500 228.133,343.500 228.092 C 343.500 228.050,343.137 226.906,342.694 225.550 C 342.250 224.193,341.259 221.152,340.492 218.792 L 339.098 214.500 337.477 214.500 L 335.857 214.500 334.829 217.708 M347.333 221.333 L 347.333 228.167 351.417 228.167 L 355.500 228.167 355.500 227.083 L 355.500 226.000 352.750 226.000 L 350.000 226.000 350.000 220.250 L 350.000 214.500 348.667 214.500 L 347.333 214.500 347.333 221.333 M82.131 216.665 C 84.558 217.767,83.180 220.667,80.230 220.667 L 79.167 220.667 79.167 218.597 C 79.167 217.098,79.224 216.505,79.375 216.444 C 79.894 216.234,81.459 216.360,82.131 216.665 M115.948 216.782 C 119.160 218.425,118.615 225.340,115.209 226.157 C 112.690 226.761,110.766 224.679,110.770 221.355 C 110.775 217.555,113.226 215.389,115.948 216.782 M162.000 216.680 C 164.316 217.273,165.494 219.865,164.749 222.729 C 164.156 225.003,162.800 226.004,160.137 226.132 L 158.500 226.211 158.500 221.365 L 158.500 216.519 159.208 216.454 C 160.038 216.377,161.178 216.469,162.000 216.680 M211.350 216.522 C 214.917 217.710,214.892 224.901,211.317 226.089 C 208.779 226.932,206.748 224.816,206.752 221.333 C 206.758 217.788,208.784 215.667,211.350 216.522 M263.131 216.756 C 265.527 218.171,263.509 221.708,260.663 221.083 L 260.167 220.974 260.167 218.749 C 260.167 216.774,260.199 216.515,260.458 216.438 C 261.015 216.274,262.644 216.468,263.131 216.756 M275.864 216.529 C 279.049 217.483,277.243 221.696,273.917 221.072 L 273.333 220.963 273.333 218.744 C 273.333 216.770,273.366 216.516,273.625 216.448 C 274.195 216.299,275.221 216.336,275.864 216.529 M289.491 216.566 C 292.091 217.506,290.773 220.667,287.781 220.667 L 286.667 220.667 286.667 218.597 C 286.667 217.098,286.724 216.505,286.875 216.444 C 287.273 216.283,288.920 216.360,289.491 216.566 M248.594 220.090 C 249.352 222.525,249.438 222.333,247.583 222.333 C 246.713 222.333,246.000 222.309,246.000 222.279 C 246.000 222.248,246.263 221.405,246.585 220.404 C 246.906 219.402,247.261 218.139,247.374 217.595 L 247.579 216.607 247.800 217.429 C 247.921 217.880,248.278 219.078,248.594 220.090 M338.423 220.254 C 338.740 221.264,339.000 222.146,339.000 222.212 C 339.000 222.279,338.287 222.333,337.417 222.333 C 336.546 222.333,335.833 222.282,335.833 222.220 C 335.833 222.158,336.093 221.276,336.410 220.261 C 336.727 219.246,337.074 218.003,337.182 217.499 L 337.379 216.584 337.612 217.500 C 337.740 218.004,338.105 219.243,338.423 220.254 M303.654 220.083 C 303.915 220.908,304.179 221.752,304.242 221.958 C 304.354 222.329,304.337 222.333,302.761 222.333 C 301.719 222.333,301.167 222.270,301.167 222.151 C 301.167 222.051,301.426 221.132,301.742 220.110 C 302.059 219.087,302.405 217.912,302.512 217.500 L 302.707 216.750 302.943 217.667 C 303.073 218.171,303.393 219.258,303.654 220.083 M176.643 217.796 C 176.737 218.234,177.081 219.415,177.407 220.421 C 177.733 221.427,178.000 222.269,178.000 222.292 C 178.000 222.315,177.261 222.333,176.357 222.333 L 174.714 222.333 175.440 219.960 C 175.840 218.655,176.167 217.455,176.167 217.294 C 176.167 216.697,176.478 217.025,176.643 217.796 " stroke="none" fill="#e47c24" fill-rule="evenodd"></path><path id="path2" d="M141.167 125.500 L 141.167 206.500 152.667 206.500 L 164.167 206.500 164.167 172.618 L 164.167 138.735 165.708 138.191 C 174.055 135.245,185.601 132.008,200.583 128.415 C 207.444 126.769,220.785 124.001,227.833 122.760 C 228.612 122.623,230.037 122.357,231.000 122.169 C 235.887 121.212,247.453 119.375,255.167 118.329 C 257.229 118.050,259.667 117.714,260.583 117.583 C 262.145 117.359,270.183 116.362,273.333 116.000 C 274.112 115.911,275.688 115.728,276.833 115.594 C 277.979 115.459,279.704 115.269,280.667 115.170 C 281.629 115.072,283.092 114.920,283.917 114.832 C 285.730 114.638,289.852 114.242,292.583 113.999 C 293.683 113.901,295.333 113.748,296.250 113.660 C 298.364 113.457,303.808 113.030,304.959 112.977 L 305.835 112.936 326.973 155.260 C 338.599 178.538,351.473 204.333,355.582 212.583 C 359.690 220.833,363.073 227.610,363.100 227.644 C 363.127 227.677,368.476 227.648,374.989 227.580 L 386.829 227.456 384.769 223.436 C 383.636 221.226,381.340 216.717,379.667 213.417 C 376.648 207.463,374.007 202.272,370.083 194.583 C 368.960 192.383,366.748 188.033,365.167 184.917 C 362.483 179.625,361.077 176.863,355.667 166.250 C 354.499 163.958,352.248 159.533,350.666 156.417 C 349.084 153.300,346.872 148.950,345.750 146.750 C 344.629 144.550,342.491 140.350,341.001 137.417 C 338.371 132.241,336.941 129.432,330.768 117.307 L 327.828 111.532 329.372 111.436 C 331.040 111.332,336.833 111.100,344.667 110.822 C 347.371 110.727,354.308 110.581,360.083 110.499 C 365.858 110.417,370.621 110.339,370.667 110.326 C 371.136 110.195,357.654 107.915,352.000 107.170 C 351.221 107.067,350.133 106.915,349.583 106.833 C 347.614 106.536,339.243 105.565,335.333 105.179 C 332.349 104.884,328.513 104.523,326.242 104.323 L 324.068 104.132 322.447 100.941 C 320.260 96.637,315.847 87.964,312.385 81.167 C 310.821 78.096,308.131 72.808,306.406 69.417 C 304.681 66.025,302.201 61.150,300.894 58.583 C 299.588 56.017,297.485 51.882,296.223 49.394 L 293.927 44.872 282.964 44.848 C 276.934 44.835,272.000 44.866,272.000 44.917 C 272.000 44.968,278.487 58.031,286.416 73.947 L 300.832 102.884 298.457 102.776 C 289.169 102.351,271.842 102.491,259.417 103.092 C 250.847 103.506,236.612 104.454,234.500 104.751 C 234.179 104.797,233.129 104.906,232.167 104.994 C 217.997 106.290,201.244 108.773,186.000 111.838 C 179.558 113.133,174.790 114.186,169.384 115.507 C 167.899 115.870,166.605 116.167,166.509 116.167 C 166.387 116.167,166.333 107.820,166.333 88.750 L 166.333 61.333 199.525 61.333 L 232.717 61.333 232.603 58.625 C 232.168 48.296,232.011 44.578,232.006 44.542 C 232.003 44.519,211.563 44.500,186.583 44.500 L 141.167 44.500 141.167 125.500 " stroke="none" fill="#b4d434" fill-rule="evenodd"></path><path id="path3" d="M253.667 162.000 L 253.667 173.500 265.167 173.500 L 276.667 173.500 276.667 162.000 L 276.667 150.500 265.167 150.500 L 253.667 150.500 253.667 162.000 M285.667 162.000 L 285.667 173.500 297.250 173.500 L 308.833 173.500 308.833 162.000 L 308.833 150.500 297.250 150.500 L 285.667 150.500 285.667 162.000 M253.667 192.583 L 253.667 204.167 265.167 204.167 L 276.667 204.167 276.667 192.583 L 276.667 181.000 265.167 181.000 L 253.667 181.000 253.667 192.583 M285.667 190.264 C 285.667 196.077,285.726 199.507,285.826 199.472 C 285.913 199.442,287.170 198.406,288.618 197.171 C 290.065 195.936,292.787 193.614,294.667 192.011 C 296.546 190.408,299.358 188.009,300.917 186.681 C 306.054 182.303,307.248 181.284,307.408 181.141 C 307.495 181.063,302.639 181.000,296.617 181.000 L 285.667 181.000 285.667 190.264 M308.736 184.083 C 308.736 185.733,308.761 186.386,308.791 185.533 C 308.821 184.681,308.821 183.331,308.791 182.533 C 308.760 181.736,308.735 182.433,308.736 184.083 M16.333 221.333 L 16.333 228.167 17.583 228.167 L 18.833 228.167 18.833 225.766 L 18.833 223.365 19.405 222.681 L 19.976 221.997 21.846 225.013 C 23.973 228.443,23.686 228.196,25.472 228.132 L 26.833 228.083 26.065 226.917 C 25.643 226.275,24.517 224.526,23.563 223.031 L 21.828 220.312 22.456 219.536 C 22.801 219.109,23.209 218.607,23.363 218.421 C 23.517 218.236,24.287 217.296,25.073 216.333 L 26.504 214.583 24.971 214.535 C 23.080 214.475,23.480 214.108,19.784 219.303 L 18.917 220.522 18.871 217.511 L 18.826 214.500 17.580 214.500 L 16.333 214.500 16.333 221.333 M30.000 221.333 L 30.000 228.167 31.333 228.167 L 32.667 228.167 32.667 225.167 L 32.667 222.167 35.500 222.167 L 38.333 222.167 38.333 225.167 L 38.333 228.167 39.583 228.167 L 40.833 228.167 40.833 221.333 L 40.833 214.500 39.583 214.500 L 38.333 214.500 38.333 217.250 L 38.333 220.000 35.500 220.000 L 32.667 220.000 32.667 217.250 L 32.667 214.500 31.333 214.500 L 30.000 214.500 30.000 221.333 M46.102 215.708 C 46.051 216.373,45.928 218.154,45.829 219.667 C 45.730 221.179,45.620 222.754,45.584 223.167 C 45.549 223.579,45.469 224.873,45.406 226.042 L 45.293 228.167 46.463 228.167 L 47.632 228.167 47.738 226.875 C 47.847 225.541,48.148 219.556,48.180 218.083 L 48.199 217.250 48.583 218.667 L 48.968 220.083 48.984 217.292 L 49.000 214.500 47.598 214.500 L 46.195 214.500 46.102 215.708 " stroke="none" fill="#f6bd19" fill-rule="evenodd"></path><path id="path4" d="M288.628 44.954 C 288.928 44.991,289.378 44.990,289.628 44.952 C 289.878 44.914,289.633 44.884,289.083 44.885 C 288.533 44.886,288.328 44.917,288.628 44.954 " stroke="none" fill="#648c54" fill-rule="evenodd"></path></g></svg>